<svg width="20" height="20" viewBox="0 0 20 20" fill="none" xmlns="http://www.w3.org/2000/svg">
<path d="M4.17708 8.69458C5.73708 11.7604 8.245 14.2683 11.3163 15.8283L13.6996 13.4396C13.9975 13.1417 14.4254 13.055 14.7992 13.1742C16.0125 13.575 17.3179 13.7917 18.6667 13.7917C19.2679 13.7917 19.75 14.2738 19.75 14.875V18.6667C19.75 19.2679 19.2679 19.75 18.6667 19.75C8.49417 19.75 0.25 11.5058 0.25 1.33333C0.25 0.732083 0.7375 0.25 1.33333 0.25H5.125C5.72625 0.25 6.20833 0.732083 6.20833 1.33333C6.20833 2.68208 6.425 3.9875 6.82583 5.20083C6.945 5.57458 6.85833 6.0025 6.56042 6.30042L4.17708 8.69458V8.69458Z" fill="#808080"/>
</svg>
