<svg width="26" height="26" viewBox="0 0 26 26" fill="none" xmlns="http://www.w3.org/2000/svg">
<path d="M4.0625 9.75H5.6875V8.125H4.0625V9.75ZM10.5625 8.125H12.1875V6.5H10.5625V8.125ZM13.8125 8.125H15.4375V6.5H13.8125V8.125ZM17.0625 8.125H18.6875V6.5H17.0625V8.125ZM10.5625 4.875H12.1875V3.25H10.5625V4.875ZM13.8125 4.875H15.4375V3.25H13.8125V4.875ZM17.0625 4.875H18.6875V3.25H17.0625V4.875ZM10.5625 14.625H12.1875V13H10.5625V14.625ZM13.8125 14.625H15.4375V13H13.8125V14.625ZM17.0625 14.625H18.6875V13H17.0625V14.625ZM10.5625 17.875H12.1875V16.25H10.5625V17.875ZM17.0625 17.875H18.6875V16.25H17.0625V17.875ZM10.5625 21.125H12.1875V19.5H10.5625V21.125ZM17.0625 21.125H18.6875V19.5H17.0625V21.125ZM21.9375 19.5H23.5625V17.875H21.9375V19.5ZM21.9375 14.625V16.25H23.5625V14.625H21.9375ZM21.9375 22.75H23.5625V21.125H21.9375V22.75ZM10.5625 11.375H12.1875V9.75H10.5625V11.375ZM13.8125 11.375H15.4375V9.75H13.8125V11.375ZM17.0625 11.375H18.6875V9.75H17.0625V11.375ZM4.0625 13H5.6875V11.375H4.0625V13ZM4.0625 16.25H5.6875V14.625H4.0625V16.25ZM4.0625 19.5H5.6875V17.875H4.0625V19.5ZM4.0625 22.75H5.6875V21.125H4.0625V22.75ZM13.8125 17.875H15.4375V16.25H13.8125V17.875Z" fill="#808080"/>
<path fill-rule="evenodd" clip-rule="evenodd" d="M25.1875 24.375C25.1875 25.2732 24.4607 26 23.5625 26H2.4375C1.53928 26 0.8125 25.2732 0.8125 24.375V6.5C0.8125 5.60178 1.53928 4.875 2.4375 4.875H7.3125V1.625C7.3125 0.726781 8.03928 0 8.9375 0H20.3125C21.2107 0 21.9375 0.726781 21.9375 1.625V11.375H23.5625C24.4607 11.375 25.1875 12.1018 25.1875 13V24.375ZM7.3125 6.5H2.4375V24.375H7.3125V6.5ZM20.3125 1.625H8.9375V24.375H13.8125V19.5H15.4375V24.375H20.3125V1.625ZM23.5625 13H21.9375V24.375H23.5625V13Z" fill="#808080"/>
</svg>
