<svg width="22" height="22" viewBox="0 0 22 22" fill="none" xmlns="http://www.w3.org/2000/svg">
<path d="M21.3853 2.96579L19.4743 1.05742C19.277 0.860105 19.0176 0.76123 18.7586 0.76123C18.4996 0.76123 18.2406 0.859668 18.0433 1.05698L16.5146 2.58123L19.8567 5.91761L21.3853 4.39379C21.7804 3.99917 21.7804 3.35911 21.3853 2.96579Z" fill="black"/>
<path d="M6.5918 12.4858L9.9343 15.8226L19.1415 6.63247L15.799 3.29565L6.5918 12.4858Z" fill="black"/>
<path d="M5.86981 13.2L5.15625 17.2477L9.21231 16.5363L5.86981 13.2Z" fill="black"/>
<path d="M15.1099 19.0514H2.50727V6.44873H11.4012L13.5931 4.26123H1.73421C0.955898 4.26123 0.319336 4.89779 0.319336 5.67611V19.8244C0.319336 20.6027 0.955898 21.2393 1.73421 21.2393H15.8825C16.6608 21.2393 17.2974 20.6027 17.2974 19.8244V9.70898L15.1099 11.8925V19.0514Z" fill="black"/>
</svg>
