<svg width="24" height="16" viewBox="0 0 24 16" fill="none" xmlns="http://www.w3.org/2000/svg">
<path d="M1.66383 1.71289C2.26539 2.05273 10.6216 6.93359 10.9334 7.10938C11.2451 7.28516 11.5623 7.36719 12.0545 7.36719C12.5466 7.36719 12.8638 7.28516 13.1755 7.10938C13.4873 6.93359 21.8435 2.05273 22.4451 1.71289C22.6693 1.58984 23.0466 1.36719 23.1287 1.11523C23.2709 0.669922 23.1177 0.5 22.5107 0.5H12.0545H1.5982C0.991169 0.5 0.838044 0.675781 0.980231 1.11523C1.06226 1.37305 1.43961 1.58984 1.66383 1.71289Z" fill="#808080"/>
<path d="M22.9211 1.97663C22.4727 2.22272 18.4477 5.29303 15.7844 7.13873L20.2797 12.5587C20.3891 12.6758 20.4383 12.8165 20.3781 12.8868C20.3125 12.9512 20.1703 12.9161 20.0555 12.8047L14.6633 7.92975C13.8484 8.49225 13.2742 8.87897 13.1758 8.93756C12.7547 9.16608 12.4594 9.19537 12.0547 9.19537C11.65 9.19537 11.3547 9.16608 10.9336 8.93756C10.8297 8.87897 10.2609 8.49225 9.44609 7.92975L4.05391 12.8047C3.94453 12.9219 3.79688 12.9571 3.73125 12.8868C3.66563 12.8223 3.71484 12.6758 3.82422 12.5587L8.31406 7.13873C5.65078 5.29303 1.58203 2.22272 1.13359 1.97663C0.652344 1.71295 0.625 2.0235 0.625 2.26374C0.625 2.50397 0.625 14.2754 0.625 14.2754C0.625 14.8204 1.37422 15.5001 1.91016 15.5001H12.0547H22.1992C22.7352 15.5001 23.375 14.8145 23.375 14.2754C23.375 14.2754 23.375 2.49811 23.375 2.26374C23.375 2.01764 23.4078 1.71295 22.9211 1.97663Z" fill="#808080"/>
</svg>
