<svg width="19" height="20" viewBox="0 0 19 20" fill="none" xmlns="http://www.w3.org/2000/svg">
<g clip-path="url(#clip0)">
<path d="M13.0523 2.03613H5.4533C3.3549 2.03613 1.65381 3.76867 1.65381 5.90586V13.6453C1.65381 15.7825 3.3549 17.5151 5.4533 17.5151H13.0523C15.1507 17.5151 16.8518 15.7825 16.8518 13.6453V5.90586C16.8518 3.76867 15.1507 2.03613 13.0523 2.03613Z" stroke="#D2AB66" stroke-width="2" stroke-linecap="round" stroke-linejoin="round"/>
<path d="M12.2924 9.28817C12.3862 9.93228 12.2782 10.5901 11.9837 11.1681C11.6892 11.7461 11.2233 12.2148 10.6523 12.5075C10.0812 12.8003 9.43401 12.9022 8.80279 12.7987C8.17157 12.6953 7.58845 12.3918 7.13637 11.9313C6.68429 11.4709 6.38627 10.877 6.2847 10.2341C6.18313 9.59121 6.28318 8.93207 6.57062 8.35044C6.85806 7.7688 7.31825 7.29429 7.88574 6.99438C8.45323 6.69448 9.09912 6.58446 9.73155 6.67997C10.3766 6.7774 10.9739 7.08356 11.435 7.55322C11.8961 8.02289 12.1967 8.63115 12.2924 9.28817Z" stroke="#D2AB66" stroke-width="2" stroke-linecap="round" stroke-linejoin="round"/>
</g>
<defs>
<clipPath id="clip0">
<rect width="18.2375" height="18.5747" fill="white" transform="translate(0.134033 0.488281)"/>
</clipPath>
</defs>
</svg>
