<svg width="22" height="22" viewBox="0 0 22 22" fill="none" xmlns="http://www.w3.org/2000/svg">
<g clip-path="url(#clip0)">
<path d="M1.35372 0.0599499C0.670518 0.223232 0.15919 0.786121 0.0345806 1.4994C-0.0298726 1.87753 0.0431743 3.4244 0.172081 4.37401C0.704893 8.29276 2.2131 11.7131 4.77403 14.8025C5.2338 15.3568 6.64318 16.7662 7.19747 17.226C10.2869 19.7869 13.7072 21.2951 17.626 21.8279C18.5842 21.9568 20.1225 22.0299 20.5049 21.9654C21.2311 21.8408 21.8026 21.2994 21.9529 20.5904C21.983 20.44 22.0002 19.6408 22.0002 18.2057C22.0002 15.9025 21.9916 15.7865 21.7811 15.3783C21.6651 15.1463 21.3815 14.8412 21.1623 14.7166C20.8358 14.5232 20.6252 14.476 19.9162 14.4373C18.5799 14.36 17.7248 14.2225 16.6506 13.9131C16.1049 13.7541 16.019 13.7412 15.658 13.7584C15.3143 13.7713 15.2326 13.7928 14.9834 13.9217C14.8244 14.0033 14.1197 14.5103 13.4108 15.0517C12.7018 15.5889 12.1045 16.0271 12.0873 16.0271C12.0315 16.0271 11.2022 15.5416 10.6994 15.2193C8.84318 14.0119 7.42521 12.4951 6.27364 10.467C6.01153 10.0115 5.96427 9.90409 6.00724 9.83964C6.03302 9.79667 6.48419 9.19511 7.00841 8.50331C7.53263 7.80722 8.00958 7.16268 8.06114 7.06815C8.117 6.96933 8.19435 6.77167 8.23302 6.62128C8.31896 6.27323 8.29318 6.04979 8.07833 5.28495C7.78185 4.22792 7.63575 3.2955 7.58419 2.14823C7.55411 1.48651 7.48966 1.16425 7.32208 0.876356C7.08146 0.468153 6.6045 0.1287 6.14474 0.0427628C5.80528 -0.0216904 1.62872 -0.00880051 1.35372 0.0599499Z" fill="#808080"/>
</g>
<defs>
<clipPath id="clip0">
<rect width="22" height="22" fill="white"/>
</clipPath>
</defs>
</svg>
