<svg width="30" height="30" viewBox="0 0 30 30" fill="none" xmlns="http://www.w3.org/2000/svg">
<path d="M26.0742 22.6582L21.1055 17.625C21.9141 16.2129 22.3359 14.6426 22.3359 13.0605C22.3359 7.92773 18.1641 3.75 13.043 3.75C7.92188 3.75 3.75 7.92773 3.75 13.0605C3.75 18.1934 7.92188 22.3711 13.043 22.3711C14.6777 22.3711 16.2949 21.9199 17.7363 21.0586L22.6816 26.0742C22.793 26.1855 22.9512 26.2559 23.1094 26.2559C23.2676 26.2559 23.4258 26.1914 23.5371 26.0742L26.0742 23.5078C26.3086 23.2676 26.3086 22.8926 26.0742 22.6582ZM13.043 7.37695C16.1719 7.37695 18.7148 9.92578 18.7148 13.0605C18.7148 16.1953 16.1719 18.7441 13.043 18.7441C9.91406 18.7441 7.37109 16.1953 7.37109 13.0605C7.37109 9.92578 9.91406 7.37695 13.043 7.37695Z" fill="#ffffff"/>
</svg>
