<svg width="21" height="14" viewBox="0 0 21 14" fill="none" xmlns="http://www.w3.org/2000/svg">
<path d="M20.525 2.149C20.365 2.05 20.183 2 20 2C19.847 2 19.694 2.035 19.553 2.105L17 3.382V3C17 1.346 15.654 0 14 0H3C1.346 0 0 1.346 0 3V11C0 12.654 1.346 14 3 14H14C15.654 14 17 12.654 17 11V10.618L19.553 11.894C19.694 11.965 19.847 12 20 12C20.183 12 20.365 11.95 20.525 11.851C20.82 11.668 21 11.347 21 11V3C21 2.653 20.82 2.332 20.525 2.149ZM5 8.5C4.171 8.5 3.5 7.829 3.5 7C3.5 6.171 4.171 5.5 5 5.5C5.829 5.5 6.5 6.171 6.5 7C6.5 7.829 5.829 8.5 5 8.5Z" fill="black"/>
</svg>
