<svg width="20" height="15" viewBox="0 0 20 15" fill="none" xmlns="http://www.w3.org/2000/svg">
<path d="M19.543 4.73829C19.5437 3.74427 19.1673 2.787 18.4897 2.05969C17.8122 1.33237 16.884 0.88917 15.8924 0.819537C11.9255 0.613287 7.89676 0.613287 3.95738 0.805787C2.01863 0.805787 0.293007 2.67579 0.293007 4.73829C0.0930862 6.73162 0.0930862 8.73995 0.293007 10.7333C0.291163 11.6998 0.671925 12.6277 1.3521 13.3143C2.03227 14.0009 2.95656 14.3904 3.92301 14.3977C5.91676 14.5077 7.91509 14.5627 9.91801 14.5627C11.9209 14.5627 13.9078 14.51 15.8786 14.4045C16.8417 14.4028 17.7655 14.0228 18.4509 13.3464C19.1364 12.6699 19.5286 11.7512 19.543 10.7883C19.8246 8.78145 19.8246 6.74513 19.543 4.73829ZM18.168 10.6714C18.1646 10.6988 18.1646 10.7265 18.168 10.7539C18.1662 11.0578 18.1045 11.3584 17.9863 11.6385C17.8681 11.9185 17.6958 12.1724 17.4793 12.3858C17.2628 12.5991 17.0063 12.7676 16.7245 12.8816C16.4428 12.9956 16.1413 13.0529 15.8374 13.0502C11.8801 13.2564 7.9147 13.2564 3.95738 13.0502C3.65108 13.0475 3.34837 12.984 3.06686 12.8632C2.78535 12.7425 2.53066 12.567 2.31761 12.3469C2.10457 12.1268 1.93742 11.8666 1.8259 11.5813C1.71437 11.296 1.6607 10.9914 1.66801 10.6852C1.47179 8.74908 1.47179 6.79812 1.66801 4.86204C1.6711 4.83692 1.6711 4.81152 1.66801 4.78641C1.66268 4.1411 1.89764 3.51689 2.32716 3.03526C2.75669 2.55364 3.35005 2.24905 3.99176 2.18079C5.95801 2.09141 7.93801 2.05016 9.91801 2.05016C11.898 2.05016 13.878 2.09141 15.8443 2.18079H15.8786C17.0543 2.18079 18.168 3.44579 18.168 4.78641C18.1646 4.8207 18.1646 4.85525 18.168 4.88954C18.4372 6.80282 18.4372 8.74438 18.168 10.6577V10.6714Z" fill="#D2AB66"/>
<path d="M13.2112 7.15133L8.30245 4.62133C8.2221 4.5798 8.13435 4.5545 8.04422 4.54688C7.95409 4.53926 7.86335 4.54947 7.77716 4.57692C7.69098 4.60437 7.61104 4.64853 7.54193 4.70687C7.47281 4.76522 7.41586 4.8366 7.37433 4.91695C7.3328 4.99731 7.3075 5.08505 7.29988 5.17518C7.29226 5.26531 7.30247 5.35606 7.32992 5.44224C7.35737 5.52843 7.40153 5.60836 7.45987 5.67748C7.51821 5.7466 7.5896 5.80355 7.66995 5.84508L11.4031 7.7632L8.65308 9.18633V7.7632C8.65308 7.58087 8.58064 7.406 8.45171 7.27707C8.32278 7.14814 8.14791 7.0757 7.96558 7.0757C7.78324 7.0757 7.60837 7.14814 7.47944 7.27707C7.35051 7.406 7.27808 7.58087 7.27808 7.7632V10.3207C7.27808 10.503 7.35051 10.6779 7.47944 10.8068C7.60837 10.9358 7.78324 11.0082 7.96558 11.0082C8.07552 11.0086 8.18397 10.9827 8.28183 10.9326L13.1906 8.37508C13.3027 8.31701 13.3966 8.22919 13.4621 8.12126C13.5276 8.01333 13.5621 7.88945 13.5618 7.7632C13.5641 7.63906 13.5327 7.51662 13.4709 7.40889C13.4092 7.30115 13.3195 7.21215 13.2112 7.15133Z" fill="#D2AB66"/>
</svg>
