<svg width="20" height="20" viewBox="0 0 20 20" fill="none" xmlns="http://www.w3.org/2000/svg">
<path d="M17.5 0H15V1.25H5V0H2.5V1.25H0V5V6.25V18.75V20H1.25H20V18.75V6.25V5V1.25H17.5V0ZM18.75 6.25V18.75H1.25V6.25H18.75Z" fill="#808080"/>
<path d="M17.5 7.5H13.75V11.25H17.5V7.5Z" fill="#808080"/>
<path d="M17.5 12.5H13.75V16.25H17.5V12.5Z" fill="#808080"/>
<path d="M12.5 12.5H8.75V16.25H12.5V12.5Z" fill="#808080"/>
<path d="M7.5 12.5H3.75V16.25H7.5V12.5Z" fill="#808080"/>
<path d="M12.5 7.5H8.75V11.25H12.5V7.5Z" fill="#808080"/>
<path d="M7.5 7.5H3.75V11.25H7.5V7.5Z" fill="#808080"/>
</svg>
