<svg width="18" height="18" viewBox="0 0 18 18" fill="none" xmlns="http://www.w3.org/2000/svg">
<path d="M8.0572 9L0.195311 1.13811C-0.0651031 0.877698 -0.0651031 0.455724 0.195311 0.19531C0.455724 -0.0651034 0.877697 -0.0651034 1.13811 0.19531L9 8.0572L16.8619 0.195414C17.1223 -0.0649993 17.5443 -0.0649993 17.8047 0.195414C18.0651 0.455828 18.0651 0.877802 17.8047 1.13822L9.9428 9L17.8047 16.8619C18.0651 17.1223 18.0651 17.5443 17.8047 17.8047C17.6745 17.9349 17.5039 18 17.3333 18C17.1628 18 16.9922 17.9349 16.862 17.8047L9 9.9428L1.13811 17.8047C1.0079 17.9349 0.837282 18 0.666763 18C0.496244 18 0.325622 17.9349 0.195415 17.8047C-0.0649981 17.5443 -0.0649981 17.1223 0.195415 16.8619L8.0572 9Z" fill="black"/>
</svg>
