<svg width="28" height="18" viewBox="0 0 28 18" fill="none" xmlns="http://www.w3.org/2000/svg">
<path d="M27.5625 9.16626L25.4144 5.58751C25.2402 5.29466 24.9931 5.05202 24.6971 4.88331C24.4011 4.7146 24.0663 4.6256 23.7256 4.62501H20.6281L21.2013 2.00001C21.2338 1.84072 21.2304 1.67618 21.1913 1.51837C21.1522 1.36056 21.0784 1.21344 20.9754 1.08773C20.8723 0.96201 20.7425 0.860856 20.5954 0.791625C20.4483 0.722394 20.2876 0.686826 20.125 0.68751H4.86063C4.60945 0.689276 4.36648 0.777097 4.17222 0.936326C3.97796 1.09556 3.84416 1.31657 3.79313 1.56251L3.56125 2.62126C3.55493 2.64999 3.55433 2.67968 3.55948 2.70864C3.56464 2.73759 3.57545 2.76525 3.59129 2.79003C3.60713 2.81482 3.6277 2.83623 3.65183 2.85307C3.67595 2.8699 3.70315 2.88181 3.73188 2.88813C3.7606 2.89445 3.79029 2.89505 3.81925 2.8899C3.84821 2.88475 3.87587 2.87394 3.90065 2.85809C3.92543 2.84225 3.94685 2.82168 3.96368 2.79756C3.98051 2.77344 3.99243 2.74624 3.99875 2.71751L4.23063 1.65438C4.26099 1.50825 4.33964 1.37657 4.45391 1.28055C4.56819 1.18453 4.71144 1.12974 4.86063 1.12501H20.125C20.2229 1.12537 20.3194 1.14761 20.4076 1.1901C20.4957 1.2326 20.5733 1.29428 20.6345 1.37061C20.6957 1.44695 20.7391 1.53602 20.7615 1.6313C20.7839 1.72657 20.7846 1.82565 20.7638 1.92126L20.1513 4.72563C20.1374 4.74722 20.1271 4.77084 20.1206 4.79563L17.9812 14.6875H7.875C7.86162 14.55 7.83674 14.4139 7.80063 14.2806V14.2325C7.76504 14.1075 7.71818 13.9859 7.66062 13.8694L7.60812 13.8125C7.54881 13.7 7.48155 13.5918 7.40688 13.4888L7.3675 13.4406C7.29115 13.3402 7.20625 13.2465 7.11375 13.1606L7.07 13.1213C6.97648 13.0351 6.87545 12.9575 6.76812 12.8894L6.72 12.8588C6.60785 12.7918 6.49086 12.7333 6.37 12.6838H6.32625C6.19999 12.6347 6.06971 12.5966 5.93687 12.57H5.90625C5.6175 12.5117 5.32 12.5117 5.03125 12.57H5.00063C4.86779 12.5966 4.73751 12.6347 4.61125 12.6838H4.5675C4.44664 12.7333 4.32965 12.7918 4.2175 12.8588L4.16938 12.8894C4.06205 12.9575 3.96102 13.0351 3.8675 13.1213L3.82375 13.1606C3.73125 13.2465 3.64635 13.3402 3.57 13.4406L3.53062 13.4888C3.45595 13.5918 3.38869 13.7 3.32938 13.8125L3.30312 13.865C3.24557 13.9816 3.19871 14.1031 3.16312 14.2281V14.2763C3.11788 14.4102 3.08422 14.5478 3.0625 14.6875H1.39563L2.1875 12.3513C2.20085 12.3234 2.20815 12.293 2.2089 12.2621C2.20965 12.2312 2.20385 12.2005 2.19187 12.172C2.17989 12.1435 2.16201 12.1179 2.1394 12.0968C2.11679 12.0757 2.08997 12.0596 2.06071 12.0497C2.03145 12.0397 2.00041 12.0361 1.96963 12.039C1.93886 12.0419 1.90905 12.0513 1.88217 12.0666C1.8553 12.0818 1.83196 12.1026 1.8137 12.1276C1.79544 12.1525 1.78268 12.181 1.77625 12.2113L1.22937 13.8125H1.0675C0.883524 13.8123 0.704175 13.8702 0.554947 13.9778C0.405718 14.0854 0.294203 14.2373 0.23625 14.4119L0 15.125H3.0625C3.0625 15.7632 3.31601 16.3752 3.76727 16.8265C4.21853 17.2777 4.83057 17.5313 5.46875 17.5313C6.10693 17.5313 6.71897 17.2777 7.17023 16.8265C7.62149 16.3752 7.875 15.7632 7.875 15.125H19.6875C19.6875 15.7632 19.941 16.3752 20.3923 16.8265C20.8435 17.2777 21.4556 17.5313 22.0938 17.5313C22.7319 17.5313 23.344 17.2777 23.7952 16.8265C24.2465 16.3752 24.5 15.7632 24.5 15.125H27.125L27.1775 14.9631C27.2488 14.7455 27.2318 14.5086 27.1304 14.3033C27.029 14.098 26.8511 13.9407 26.635 13.865L27.7112 10.8331C27.811 10.5615 27.8494 10.2712 27.8237 9.98302C27.798 9.69483 27.7088 9.4159 27.5625 9.16626ZM5.46875 16.875C5.07937 16.875 4.69873 16.7595 4.37497 16.5432C4.05121 16.3269 3.79887 16.0194 3.64986 15.6597C3.50085 15.2999 3.46186 14.9041 3.53783 14.5222C3.61379 14.1403 3.8013 13.7895 4.07663 13.5141C4.35197 13.2388 4.70277 13.0513 5.08467 12.9753C5.46657 12.8994 5.86242 12.9384 6.22216 13.0874C6.5819 13.2364 6.88938 13.4887 7.10571 13.8125C7.32203 14.1362 7.4375 14.5169 7.4375 14.9063C7.43634 15.4281 7.22855 15.9281 6.85959 16.2971C6.49063 16.6661 5.99054 16.8739 5.46875 16.875ZM22.0938 16.875C21.7044 16.875 21.3237 16.7595 21 16.5432C20.6762 16.3269 20.4239 16.0194 20.2749 15.6597C20.1259 15.2999 20.0869 14.9041 20.1628 14.5222C20.2388 14.1403 20.4263 13.7895 20.7016 13.5141C20.977 13.2388 21.3278 13.0513 21.7097 12.9753C22.0916 12.8994 22.4874 12.9384 22.8472 13.0874C23.2069 13.2364 23.5144 13.4887 23.7307 13.8125C23.947 14.1362 24.0625 14.5169 24.0625 14.9063C24.0613 15.4281 23.8536 15.9281 23.4846 16.2971C23.1156 16.6661 22.6155 16.8739 22.0938 16.875ZM27.3 10.6844L25.8781 14.6875H24.5C24.4866 14.55 24.4617 14.4139 24.4256 14.2806V14.2325C24.3893 14.1077 24.3425 13.9863 24.2856 13.8694L24.2331 13.8125C24.1728 13.7005 24.1056 13.5924 24.0319 13.4888L23.9925 13.4406C23.9161 13.3402 23.8313 13.2465 23.7388 13.1606L23.695 13.1169C23.6003 13.0335 23.4994 12.9574 23.3931 12.8894L23.345 12.8588C23.2338 12.7901 23.1167 12.7315 22.995 12.6838H22.9513C22.825 12.6347 22.6947 12.5966 22.5619 12.57H22.5312C22.2426 12.5111 21.9449 12.5111 21.6562 12.57H21.6256C21.4928 12.5966 21.3625 12.6347 21.2362 12.6838H21.1925C21.0708 12.7315 20.9537 12.7901 20.8425 12.8588L20.7944 12.8894C20.6881 12.9574 20.5872 13.0335 20.4925 13.1169L20.4488 13.1606C20.3562 13.2465 20.2713 13.3402 20.195 13.4406L20.1556 13.4888C20.0819 13.5924 20.0147 13.7005 19.9544 13.8125L19.9281 13.865C19.8713 13.9819 19.8245 14.1034 19.7881 14.2281V14.2763C19.7429 14.4102 19.7092 14.5478 19.6875 14.6875H18.4187L20.5231 5.06251H23.7169C23.9817 5.06266 24.242 5.13171 24.4721 5.26287C24.7022 5.39403 24.8943 5.5828 25.0294 5.81063L27.1644 9.38939C27.2808 9.58201 27.3533 9.79792 27.3767 10.0218C27.4001 10.2456 27.3739 10.4718 27.3 10.6844Z" fill="#808080"/>
<path d="M24.2854 6.48875C24.1898 6.32135 24.0516 6.18219 23.8849 6.08539C23.7182 5.98858 23.5288 5.93756 23.336 5.9375H21.656C21.6087 5.9375 21.5626 5.95285 21.5248 5.98125C21.4869 6.00965 21.4593 6.04956 21.446 6.095L20.571 9.1575C20.5625 9.1902 20.5612 9.22437 20.5672 9.25762C20.5733 9.29087 20.5865 9.3224 20.606 9.35C20.6261 9.37742 20.6525 9.39966 20.683 9.41488C20.7134 9.43009 20.747 9.43785 20.781 9.4375H24.0841C24.2766 9.43833 24.4658 9.38816 24.6326 9.2921C24.7993 9.19604 24.9377 9.05751 25.0335 8.89063C25.13 8.72531 25.1808 8.53734 25.1808 8.34594C25.1808 8.15453 25.13 7.96656 25.0335 7.80125L24.2854 6.48875ZM24.6529 8.67625C24.5956 8.77637 24.5128 8.8595 24.4128 8.91715C24.3129 8.9748 24.1995 9.0049 24.0841 9.00437H21.0698L21.8223 6.37937H23.336C23.4519 6.37883 23.5658 6.4094 23.6658 6.46788C23.7659 6.52637 23.8484 6.61063 23.9048 6.71188L24.6573 8.02438C24.7126 8.12347 24.7413 8.23521 24.7405 8.3487C24.7397 8.46219 24.7095 8.57354 24.6529 8.67188V8.67625Z" fill="#808080"/>
<path d="M5.46875 13.8125C5.25243 13.8125 5.04096 13.8766 4.8611 13.9968C4.68123 14.117 4.54104 14.2878 4.45826 14.4877C4.37547 14.6875 4.35381 14.9075 4.39602 15.1196C4.43822 15.3318 4.54239 15.5267 4.69535 15.6796C4.84832 15.8326 5.0432 15.9368 5.25537 15.979C5.46754 16.0212 5.68745 15.9995 5.88731 15.9167C6.08717 15.834 6.25799 15.6938 6.37817 15.5139C6.49835 15.334 6.5625 15.1226 6.5625 14.9062C6.5625 14.6162 6.44727 14.338 6.24215 14.1329C6.03703 13.9277 5.75883 13.8125 5.46875 13.8125ZM5.46875 15.5625C5.33896 15.5625 5.21208 15.524 5.10416 15.4519C4.99624 15.3798 4.91212 15.2773 4.86245 15.1574C4.81278 15.0375 4.79979 14.9055 4.82511 14.7782C4.85043 14.6509 4.91293 14.534 5.00471 14.4422C5.09649 14.3504 5.21342 14.2879 5.34072 14.2626C5.46802 14.2373 5.59997 14.2503 5.71989 14.3C5.8398 14.3496 5.94229 14.4337 6.0144 14.5417C6.08651 14.6496 6.125 14.7765 6.125 14.9062C6.125 15.0803 6.05586 15.2472 5.93279 15.3703C5.80972 15.4934 5.6428 15.5625 5.46875 15.5625Z" fill="#808080"/>
<path d="M22.0938 13.8125C21.8774 13.8125 21.666 13.8766 21.4861 13.9968C21.3062 14.117 21.166 14.2878 21.0833 14.4877C21.0005 14.6875 20.9788 14.9075 21.021 15.1196C21.0632 15.3318 21.1674 15.5267 21.3204 15.6796C21.4733 15.8326 21.6682 15.9368 21.8804 15.979C22.0925 16.0212 22.3125 15.9995 22.5123 15.9167C22.7122 15.834 22.883 15.6938 23.0032 15.5139C23.1234 15.334 23.1875 15.1226 23.1875 14.9062C23.1875 14.6162 23.0723 14.338 22.8672 14.1329C22.662 13.9277 22.3838 13.8125 22.0938 13.8125ZM22.0938 15.5625C21.964 15.5625 21.8371 15.524 21.7292 15.4519C21.6212 15.3798 21.5371 15.2773 21.4875 15.1574C21.4378 15.0375 21.4248 14.9055 21.4501 14.7782C21.4754 14.6509 21.5379 14.534 21.6297 14.4422C21.7215 14.3504 21.8384 14.2879 21.9657 14.2626C22.093 14.2373 22.225 14.2503 22.3449 14.3C22.4648 14.3496 22.5673 14.4337 22.6394 14.5417C22.7115 14.6496 22.75 14.7765 22.75 14.9062C22.75 15.0803 22.6809 15.2472 22.5578 15.3703C22.4347 15.4934 22.2678 15.5625 22.0938 15.5625Z" fill="#808080"/>
<path d="M1.3125 4.625H10.9375C11.0535 4.625 11.1648 4.57891 11.2469 4.49686C11.3289 4.41481 11.375 4.30353 11.375 4.1875C11.375 4.07147 11.3289 3.96019 11.2469 3.87814C11.1648 3.79609 11.0535 3.75 10.9375 3.75H1.3125C1.19647 3.75 1.08519 3.79609 1.00314 3.87814C0.921093 3.96019 0.875 4.07147 0.875 4.1875C0.875 4.30353 0.921093 4.41481 1.00314 4.49686C1.08519 4.57891 1.19647 4.625 1.3125 4.625Z" fill="#808080"/>
<path d="M9.625 8.5625C9.625 8.44647 9.57891 8.33519 9.49686 8.25314C9.41481 8.17109 9.30353 8.125 9.1875 8.125H1.75C1.63397 8.125 1.52269 8.17109 1.44064 8.25314C1.35859 8.33519 1.3125 8.44647 1.3125 8.5625C1.3125 8.67853 1.35859 8.78981 1.44064 8.87186C1.52269 8.95391 1.63397 9 1.75 9H9.1875C9.30353 9 9.41481 8.95391 9.49686 8.87186C9.57891 8.78981 9.625 8.67853 9.625 8.5625Z" fill="#808080"/>
<path d="M10.5 6.375C10.5 6.25897 10.4539 6.14769 10.3719 6.06564C10.2898 5.98359 10.1785 5.9375 10.0625 5.9375H2.1875C2.07147 5.9375 1.96019 5.98359 1.87814 6.06564C1.79609 6.14769 1.75 6.25897 1.75 6.375C1.75 6.49103 1.79609 6.60231 1.87814 6.68436C1.96019 6.7664 2.07147 6.8125 2.1875 6.8125H10.0625C10.1785 6.8125 10.2898 6.7664 10.3719 6.68436C10.4539 6.60231 10.5 6.49103 10.5 6.375Z" fill="#808080"/>
<path d="M0.875 6.8125C1.11662 6.8125 1.3125 6.61662 1.3125 6.375C1.3125 6.13337 1.11662 5.9375 0.875 5.9375C0.633376 5.9375 0.4375 6.13337 0.4375 6.375C0.4375 6.61662 0.633376 6.8125 0.875 6.8125Z" fill="#808080"/>
<path d="M2.625 10.3125C2.50897 10.3125 2.39769 10.3586 2.31564 10.4406C2.23359 10.5227 2.1875 10.634 2.1875 10.75C2.1875 10.866 2.23359 10.9773 2.31564 11.0594C2.39769 11.1414 2.50897 11.1875 2.625 11.1875H8.3125C8.42853 11.1875 8.53981 11.1414 8.62186 11.0594C8.70391 10.9773 8.75 10.866 8.75 10.75C8.75 10.634 8.70391 10.5227 8.62186 10.4406C8.53981 10.3586 8.42853 10.3125 8.3125 10.3125H2.625Z" fill="#808080"/>
<path d="M1.3125 11.1875C1.55412 11.1875 1.75 10.9916 1.75 10.75C1.75 10.5084 1.55412 10.3125 1.3125 10.3125C1.07088 10.3125 0.875 10.5084 0.875 10.75C0.875 10.9916 1.07088 11.1875 1.3125 11.1875Z" fill="#808080"/>
</svg>
