<svg width="28" height="18" viewBox="0 0 28 18" fill="none" xmlns="http://www.w3.org/2000/svg">
<path d="M1.44905 1.87461C2.17952 2.25977 12.3264 7.79141 12.7049 7.99063C13.0834 8.18984 13.4686 8.28281 14.0662 8.28281C14.6639 8.28281 15.0491 8.18984 15.4276 7.99063C15.8061 7.79141 25.953 2.25977 26.6834 1.87461C26.9557 1.73516 27.4139 1.48281 27.5135 1.19727C27.6862 0.692578 27.5002 0.5 26.7631 0.5H14.0662H1.36937C0.632256 0.5 0.446318 0.699219 0.618974 1.19727C0.718584 1.48945 1.17679 1.73516 1.44905 1.87461Z" fill="#D2AB66"/>
<path d="M27.2613 2.17334C26.7168 2.45225 21.8293 5.93194 18.5953 8.02373L24.0539 14.1663C24.1867 14.2991 24.2465 14.4585 24.1734 14.5382C24.0938 14.6112 23.9211 14.5714 23.7816 14.4452L17.234 8.92022C16.2445 9.55772 15.5473 9.996 15.4277 10.0624C14.9164 10.3214 14.5578 10.3546 14.0664 10.3546C13.575 10.3546 13.2164 10.3214 12.7051 10.0624C12.5789 9.996 11.8883 9.55772 10.8988 8.92022L4.35117 14.4452C4.21836 14.578 4.03906 14.6179 3.95938 14.5382C3.87969 14.4651 3.93945 14.2991 4.07227 14.1663L9.52422 8.02373C6.29023 5.93194 1.34961 2.45225 0.805078 2.17334C0.220703 1.87451 0.1875 2.22647 0.1875 2.49873C0.1875 2.771 0.1875 16.112 0.1875 16.112C0.1875 16.7296 1.09727 17.4999 1.74805 17.4999H14.0664H26.3848C27.0355 17.4999 27.8125 16.7229 27.8125 16.112C27.8125 16.112 27.8125 2.76436 27.8125 2.49873C27.8125 2.21983 27.8523 1.87451 27.2613 2.17334Z" fill="#D2AB66"/>
</svg>
