<svg width="26" height="16" viewBox="0 0 26 16" fill="none" xmlns="http://www.w3.org/2000/svg">
<path d="M1.92589 1.71289C2.57042 2.05273 11.5236 6.93359 11.8575 7.10938C12.1915 7.28516 12.5314 7.36719 13.0587 7.36719C13.5861 7.36719 13.9259 7.28516 14.2599 7.10938C14.5939 6.93359 23.547 2.05273 24.1915 1.71289C24.4318 1.58984 24.8361 1.36719 24.9239 1.11523C25.0763 0.669922 24.9122 0.5 24.2618 0.5H13.0587H1.85558C1.20519 0.5 1.04113 0.675781 1.19347 1.11523C1.28136 1.37305 1.68566 1.58984 1.92589 1.71289Z" fill="#808080"/>
<path d="M24.7012 1.97663C24.2207 2.22272 19.9082 5.29303 17.0547 7.13873L21.8711 12.5587C21.9883 12.6758 22.041 12.8165 21.9766 12.8868C21.9062 12.9512 21.7539 12.9161 21.6309 12.8047L15.8535 7.92975C14.9805 8.49225 14.3652 8.87897 14.2598 8.93756C13.8086 9.16608 13.4922 9.19537 13.0586 9.19537C12.625 9.19537 12.3086 9.16608 11.8574 8.93756C11.7461 8.87897 11.1367 8.49225 10.2637 7.92975L4.48633 12.8047C4.36914 12.9219 4.21094 12.9571 4.14063 12.8868C4.07031 12.8223 4.12305 12.6758 4.24023 12.5587L9.05078 7.13873C6.19727 5.29303 1.83789 2.22272 1.35742 1.97663C0.841797 1.71295 0.8125 2.0235 0.8125 2.26374C0.8125 2.50397 0.8125 14.2754 0.8125 14.2754C0.8125 14.8204 1.61523 15.5001 2.18945 15.5001H13.0586H23.9277C24.502 15.5001 25.1875 14.8145 25.1875 14.2754C25.1875 14.2754 25.1875 2.49811 25.1875 2.26374C25.1875 2.01764 25.2227 1.71295 24.7012 1.97663Z" fill="#808080"/>
</svg>
