<svg id="Layer_1" data-name="Layer 1" xmlns="http://www.w3.org/2000/svg" viewBox="0 0 40 40"><defs><style>.cls-1{fill:#d2ab66;}</style></defs><path class="cls-1" d="M34.89,10.22a5.11,5.11,0,1,0-5.12-5.11A5.11,5.11,0,0,0,34.89,10.22Zm0-8.26a3.16,3.16,0,1,1-3.16,3.15A3.16,3.16,0,0,1,34.89,2Z"/><path class="cls-1" d="M37.77,21.55H26.11v-1.5a5.13,5.13,0,0,0,1.44-.5,5.22,5.22,0,0,0,2.64-3.26,5.65,5.65,0,0,0,.18-1.37c0-2.66-4.23-9.23-4.41-9.51a1,1,0,0,0-1.64,0c-.74,1.16-4.42,7.05-4.42,9.51a5.25,5.25,0,0,0,3.19,4.8,5.53,5.53,0,0,0,1.07.33v1.5H11.57V16.79a8.71,8.71,0,0,0,2.11-.53,8.38,8.38,0,0,0,5.08-5.82A8.42,8.42,0,1,0,8.23,16.5a8,8,0,0,0,1.38.28v4.77H2.22a2.23,2.23,0,0,0-1.75.85,2.18,2.18,0,0,0-.41,1.87,20.5,20.5,0,0,0,39.88,0,2.23,2.23,0,0,0-2.17-2.72ZM21.86,14.92a5.15,5.15,0,0,1,.43-1.64v0l.12-.3.07-.14a2.6,2.6,0,0,1,.1-.25,2,2,0,0,1,.1-.21l.13-.3.09-.18c.62-1.29,1.43-2.76,2.23-4.08C26,9.29,27,11,27.59,12.37v0a7.41,7.41,0,0,1,.81,2.53,3.27,3.27,0,1,1-6.54,0ZM4.13,8.42A6.47,6.47,0,1,1,12,14.73l-.38.08V13l3.08-3.08a1,1,0,0,0,0-1.39A.93.93,0,0,0,14,8.26a1,1,0,0,0-.7.29l-.94.94-.75.76V5.93a1,1,0,0,0-2,0v4.31L7.93,8.55a.94.94,0,0,0-.69-.29,1,1,0,0,0-.7.29.94.94,0,0,0-.29.69,1,1,0,0,0,.29.7L9.62,13V14.8A6.49,6.49,0,0,1,4.13,8.42ZM20,38A18.45,18.45,0,0,1,2,23.81a.23.23,0,0,1,0-.17.21.21,0,0,1,.17-.08H37.77a.23.23,0,0,1,.18.08.19.19,0,0,1,0,.17A18.43,18.43,0,0,1,20,38Z"/></svg>