<svg xmlns="http://www.w3.org/2000/svg" viewBox="0 0 1280 720"><defs><style>.cls-1{fill:#d2ab66;}.cls-2{fill:#fff;}</style></defs><g id="Layer_1" data-name="Layer 1"><rect width="1280" height="720"/><path class="cls-1" d="M595.22,365.49l-58.33,57.74-82.15-87.82h34.09l31.23,58.64h2l-26-61.37,43.91-38.39,51.87-1.47V291L483.7,288.37a2,2,0,0,0-1.5.62l-1.36,1.45-36.36,38.21a4.58,4.58,0,0,0,0,6.31l89.07,95.22a4.62,4.62,0,0,0,6.72,0L597,365.46ZM482.9,298.71l3-3.19,42.81-1-38.5,33.67H454.83Z"/><rect class="cls-2" x="684.36" y="313.2" width="5" height="46.93"/><polygon class="cls-2" points="722.45 313.2 717.45 313.2 717.45 360.13 719.95 360.13 722.45 360.13 742.71 360.13 742.71 355.13 722.45 355.13 722.45 313.2"/><polygon class="cls-2" points="569.45 312.11 566.73 318.43 548.79 360.13 554.24 360.13 569.45 324.76 572.17 318.44 569.45 312.11"/><polygon class="cls-2" points="570.54 327.3 584.66 360.13 590.11 360.13 573.26 320.97 570.54 327.3"/><polygon class="cls-2" points="643.92 313.2 638.47 313.2 656.41 354.9 659.13 361.22 661.85 354.89 659.13 348.57 643.92 313.2"/><polygon class="cls-2" points="660.22 346.03 662.94 352.36 679.79 313.2 674.34 313.2 660.22 346.03"/><polygon class="cls-2" points="628.8 348.65 594.76 312.1 594.76 360.13 599.76 360.13 599.76 324.81 633.8 361.36 633.8 313.2 628.8 313.2 628.8 348.65"/><path class="cls-2" d="M813.42,313.3H798.79v46.77h14.63a23.39,23.39,0,0,0,0-46.77Zm0,41.77h-9.63V318.3h9.63a18.39,18.39,0,0,1,0,36.77Z"/><path class="cls-2" d="M773.49,341.65h12V350c-3.48,4.65-7.77,5.52-14.77,5.52a18.85,18.85,0,1,1,15.26-30l4-2.95a23.87,23.87,0,1,0-19.29,37.9c6.9,0,14.07-.64,19.33-8.3l.44-.64V336.65h-17Z"/><path class="cls-2" d="M538.78,348.18a7.94,7.94,0,0,1-3.67,6.81c-3.63,2.18-7.68,1.71-11.4-1.31l-3.16,3.87a15.6,15.6,0,0,0,9.84,3.8,14.2,14.2,0,0,0,7.38-2.13,12.91,12.91,0,0,0,6-11v-35h-5Z"/><path class="cls-2" d="M814.6,379.87H806V407.5h8.64a13.82,13.82,0,1,0,0-27.63Zm0,24.67h-5.69V382.82h5.69a10.86,10.86,0,0,1,0,21.72Z"/><polygon class="cls-2" points="706.86 379.87 703.73 379.87 714.05 403.86 715.61 407.5 717.18 403.86 715.61 400.22 706.86 379.87"/><polygon class="cls-2" points="716.24 398.76 717.8 402.4 727.5 379.87 724.37 379.87 716.24 398.76"/><path class="cls-2" d="M693.42,379.82h-9V407.5h3V397.12h6.1a8.65,8.65,0,1,0,0-17.3Zm0,14.35h-6.1v-11.4h6.1a5.7,5.7,0,1,1,0,11.4Z"/><polygon class="cls-2" points="729.26 382.77 735.95 382.77 735.95 407.5 738.9 407.5 738.9 382.77 745.58 382.77 745.58 379.82 729.26 379.82 729.26 382.77"/><polygon class="cls-2" points="786.54 382.77 793.23 382.77 793.23 407.5 796.18 407.5 796.18 382.77 802.87 382.77 802.87 379.82 786.54 379.82 786.54 382.77"/><path class="cls-2" d="M751.14,404.47a1.74,1.74,0,1,0,1.74,1.74A1.74,1.74,0,0,0,751.14,404.47Z"/><path class="cls-2" d="M833,404.47a1.74,1.74,0,1,0,1.74,1.74A1.73,1.73,0,0,0,833,404.47Z"/><polygon class="cls-2" points="772.38 379.87 769.43 379.87 769.43 407.5 772.38 407.5 772.38 407.46 784.51 407.46 784.51 404.52 772.38 404.52 772.38 379.87"/></g></svg>