<svg width="26" height="26" viewBox="0 0 26 26" fill="none" xmlns="http://www.w3.org/2000/svg">
<path d="M0.4056 1.66896C0.182 1.78337 0 2.09017 0 2.33977C0 2.59977 0.182 2.89617 0.416 3.01576C0.6084 3.11456 0.7176 3.11976 2.2776 3.11976H3.9364L4.1288 3.78016C4.446 4.86696 4.9348 6.53097 5.1532 7.27977C5.2676 7.66457 5.3976 8.14297 5.4392 8.34577C5.4808 8.54337 5.6524 9.18297 5.824 9.76017C5.9956 10.3426 6.2764 11.2942 6.448 11.8818C6.6196 12.4694 6.9004 13.421 7.072 14.0034C7.4152 15.1682 7.592 15.8338 7.592 15.9586C7.592 16.0054 7.5452 16.1354 7.488 16.2446C7.0252 17.0974 6.994 17.8514 7.3736 18.6158C7.5868 19.0474 7.8832 19.3646 8.2628 19.5674C8.71 19.8118 9.0272 19.8638 10.166 19.869C11.1072 19.8742 11.18 19.8794 10.946 19.9366C10.1608 20.1342 9.5992 20.6438 9.3288 21.3978C9.1884 21.7878 9.1988 22.5626 9.3496 22.9214C9.516 23.327 9.854 23.795 10.1036 23.977C11.05 24.6634 12.2564 24.5698 13.078 23.743C13.8632 22.9526 13.9932 21.819 13.4056 20.8934C13.1508 20.4878 12.4904 20.0458 11.96 19.9158C11.856 19.895 13.3068 19.8742 15.314 19.8742C17.3212 19.8742 18.772 19.895 18.668 19.9158C18.1376 20.0458 17.4772 20.4878 17.2224 20.8934C16.6348 21.819 16.7648 22.963 17.5448 23.7378C18.4756 24.6634 19.8692 24.6686 20.7324 23.743C21.6476 22.7706 21.6424 21.403 20.722 20.5242C20.384 20.2018 20.0928 20.0354 19.682 19.9366C19.4584 19.8794 19.6196 19.8742 20.8884 19.869C22.5784 19.8638 22.6356 19.8534 22.8228 19.4686C22.9632 19.1774 22.9632 18.9902 22.8228 18.699C22.7344 18.517 22.6668 18.4598 22.516 18.413C22.3756 18.3714 20.4412 18.3558 15.7768 18.3558C9.646 18.3558 9.2196 18.3506 9.048 18.2622C8.6268 18.0542 8.5228 17.5966 8.7724 17.0818L8.9128 16.7958H15.6364C23.192 16.7958 22.6096 16.827 22.8176 16.4058C22.88 16.281 23.0828 15.6466 23.27 14.9914C24.024 12.4174 24.128 12.0482 24.492 10.8158C24.7 10.1138 24.9028 9.39097 24.9392 9.20376C24.9756 9.01657 25.0796 8.63177 25.1628 8.34577C25.7556 6.31776 26 5.45457 26 5.36097C26 5.14777 25.7972 4.84097 25.584 4.73177C25.3812 4.62777 25.298 4.62777 15.6624 4.62777H5.9436L5.7044 3.78016C5.5692 3.31737 5.4236 2.77137 5.382 2.57376C5.2624 2.05376 5.1324 1.80936 4.8932 1.67417C4.6956 1.55976 4.654 1.55976 2.6468 1.55976C0.7072 1.56496 0.5876 1.57017 0.4056 1.66896Z" fill="#ffffff"/>
</svg>
