<svg id="Layer_1" data-name="Layer 1" xmlns="http://www.w3.org/2000/svg" viewBox="0 0 40 40"><defs><style>.cls-1{fill:#d2ab66;}</style></defs><path class="cls-1" d="M37.46,8.23l1.72-.69a1.31,1.31,0,0,0,0-2.43l-3-1.24L34.89.82A1.29,1.29,0,0,0,33.68,0a1.3,1.3,0,0,0-1.22.82l-.95,2.33H7.1a3.5,3.5,0,0,0-3.18,2L.36,13.07a3.59,3.59,0,0,0,.38,3.74l6.17,7.92h0l-.13.33L4.49,26a1.41,1.41,0,0,0,0,2.61l2.29.92.93,2.29a1.39,1.39,0,0,0,1.3.88,1.42,1.42,0,0,0,1.31-.88L11,30l7.1,9.1a2.23,2.23,0,0,0,1.78.88h0a2.24,2.24,0,0,0,1.78-.86L39.24,16.81a3.53,3.53,0,0,0,.41-3.71ZM32.24,5.62a1.33,1.33,0,0,0,.58-.46A1.43,1.43,0,0,0,33,4.89l.67-1.66h0l0-.09,0,.11.66,1.64a1.37,1.37,0,0,0,.73.73l1.44.58.31.12-.21.09h0L35.11,7a1.11,1.11,0,0,0-.3.17h0a1.33,1.33,0,0,0-.43.55l-.7,1.74L33,7.76A1.28,1.28,0,0,0,32.24,7L30.5,6.32Zm-9.46-.47,3,8.79H14.26l3-8.79ZM2.17,13.94h0L5.73,6A1.52,1.52,0,0,1,7.1,5.15h8l-2.92,8.68a.45.45,0,0,0,0,.11Zm8.09,13.82a1.39,1.39,0,0,0-.62.48h0a2,2,0,0,0-.16.29L9,29.69l-.47-1.16a1.44,1.44,0,0,0-.78-.77L6.6,27.29l1.16-.48a1.35,1.35,0,0,0,.51-.34A1.48,1.48,0,0,0,8.54,26L9,24.88,9.48,26c0,.08.08.17.13.25a1.39,1.39,0,0,0,.65.52l1.16.48Zm7.27,7.34-4.82-6.18.82-.33a1.41,1.41,0,0,0,0-2.61l-2.29-.92-.92-2.29A1.42,1.42,0,0,0,9,21.89a1.37,1.37,0,0,0-1.22.71h0L2.61,15.94h9.48s0,0,0,.06l5.44,19.11Zm2.39,1.07L14.17,15.94H25.82ZM37.38,15.94,22.33,35.07h0L27.89,16s0-.05,0-.07Zm-9.53-2s0-.07,0-.1L24.9,5.15h3.17a1.28,1.28,0,0,0-.71,1.16,1.3,1.3,0,0,0,.82,1.22l3.05,1.23,1.23,3.05a1.3,1.3,0,0,0,1.22.82,1.29,1.29,0,0,0,1.21-.82l1-2.33h0l2,4.45h-10Z"/></svg>