<svg width="32" height="32" viewBox="0 0 32 32" fill="none" xmlns="http://www.w3.org/2000/svg">
<path d="M9.61303 5.27378C8.51863 5.48498 7.50103 5.92018 6.70743 6.52818C6.11863 6.96978 5.32503 7.84018 4.97943 8.42898C4.32663 9.52978 4.03223 10.6178 4.03223 11.9362C4.03223 13.4722 4.47383 14.797 5.36983 15.9746C5.58103 16.2498 8.05783 18.797 10.8802 21.6322L16.0002 26.7842L21.1202 21.6322C23.9426 18.797 26.4194 16.2498 26.637 15.9682C27.0978 15.3666 27.5138 14.5282 27.7506 13.7282C27.981 12.9538 28.0386 11.5266 27.8722 10.6562C27.7378 9.93938 27.4178 9.09458 27.021 8.42898C26.669 7.84018 25.8818 6.96978 25.2802 6.51538C24.7042 6.07378 23.7058 5.59378 22.9442 5.39538C22.3874 5.24818 22.1762 5.22898 21.3122 5.22258C20.4738 5.22258 20.2306 5.24178 19.7506 5.36978C18.4834 5.69618 17.4018 6.31698 16.5314 7.20658L16.0002 7.75058L15.4754 7.20658C14.605 6.32338 13.5106 5.69618 12.2882 5.38258C11.5842 5.19698 10.2786 5.14578 9.61303 5.27378Z" fill="#ffffff"/>
</svg>
