<svg id="Layer_1" data-name="Layer 1" xmlns="http://www.w3.org/2000/svg" viewBox="0 0 40 40"><defs><style>.cls-1{fill:#d2ab66;}</style></defs><path class="cls-1" d="M35,10H30V5a5,5,0,0,0-5-5H5A5,5,0,0,0,0,5V25a5,5,0,0,0,5,5h5v5a5,5,0,0,0,5,5H35a5,5,0,0,0,5-5V15A5,5,0,0,0,35,10ZM12,26.61v-5L21.59,12h5L13.19,25.39Zm6.31-14.17-5.85,5.85-.46.47V15a3,3,0,0,1,3-3h3.78ZM14.61,26.81,28,13.39v5l-9.14,9.14-.46.46h-5Zm7.1.75,5.85-5.85.46-.47V25a3,3,0,0,1-3,3H21.24ZM5,28a3,3,0,0,1-3-3V5A3,3,0,0,1,5,2H25a3,3,0,0,1,3,3v5H15a5,5,0,0,0-5,5V28Zm33,7a3,3,0,0,1-3,3H15a3,3,0,0,1-3-3V30H25a5,5,0,0,0,5-5V12h5a3,3,0,0,1,3,3Z"/></svg>