<svg width="17" height="14" viewBox="0 0 17 14" fill="none" xmlns="http://www.w3.org/2000/svg">
<path d="M16.9145 2.52678C16.326 2.78828 15.694 2.96478 15.0295 3.04328C15.707 2.63728 16.2275 1.99428 16.473 1.22828C15.8385 1.60378 15.1365 1.87778 14.389 2.02428C13.79 1.38678 12.937 0.988281 11.9925 0.988281C10.18 0.988281 8.71146 2.45728 8.71146 4.26978C8.71146 4.52678 8.73996 4.77778 8.79596 5.01778C6.06846 4.88078 3.65046 3.57428 2.03146 1.58878C1.74946 2.07378 1.58746 2.63728 1.58746 3.23878C1.58746 4.37778 2.16696 5.38178 3.04696 5.97078C2.50946 5.95328 2.00346 5.80628 1.56096 5.56028C1.56046 5.57378 1.56046 5.58828 1.56046 5.60128C1.56046 7.19178 2.69146 8.51828 4.19296 8.81978C3.91796 8.89428 3.62796 8.93478 3.32846 8.93478C3.11646 8.93478 2.91146 8.91428 2.71146 8.87628C3.12846 10.1793 4.34096 11.1283 5.77646 11.1553C4.65396 12.0353 3.23896 12.5608 1.70146 12.5608C1.43646 12.5608 1.17496 12.5453 0.918457 12.5148C2.37046 13.4448 4.09546 13.9883 5.94896 13.9883C11.985 13.9883 15.2865 8.98778 15.2865 4.65078C15.2865 4.50878 15.2825 4.36678 15.2765 4.22578C15.918 3.76328 16.474 3.18578 16.9145 2.52678Z" fill="#D2AB66"/>
</svg>
