<svg width="60" height="40" viewBox="0 0 60 40" fill="none" xmlns="http://www.w3.org/2000/svg">
<path d="M48.8727 16.9719C48.8727 16.8125 48.8992 16.6531 48.8992 16.4938C48.8992 7.86094 42.0195 0.875 33.5328 0.875C27.4102 0.875 22.1508 4.51406 19.6805 9.77344C18.6047 9.22891 17.3961 8.91016 16.1211 8.91016C12.2031 8.91016 8.93594 11.8188 8.31172 15.6172C3.61016 17.2375 0.25 21.7398 0.25 27.0391C0.25 33.7062 5.57578 39.125 12.1367 39.125H25.75V28.5H19.3484L30 17.3836L40.6516 28.4867H34.25V39.1117H48.8992C54.9023 39.1117 59.75 34.1312 59.75 28.0352C59.75 21.9391 54.8758 16.9852 48.8727 16.9719Z" fill="#808080"/>
</svg>
