<svg width="26" height="26" viewBox="0 0 26 26" fill="none" xmlns="http://www.w3.org/2000/svg">
<path d="M11.8575 0.0761499C10.4712 0.289432 9.2321 0.949588 8.26218 1.98045C7.19577 3.11287 6.64226 4.42303 6.56608 5.99217C6.45944 8.18592 7.53601 10.2832 9.3946 11.4969C10.3087 12.0961 11.1872 12.4008 12.2536 12.4871C14.229 12.6394 15.9149 12.0199 17.2758 10.6336C18.3575 9.5367 18.9059 8.33826 19.038 6.80974C19.2208 4.76834 18.4489 2.86912 16.9102 1.53865C15.9149 0.685525 15.0008 0.258963 13.7364 0.0761499C13.127 -0.0101776 12.4161 -0.0152559 11.8575 0.0761499Z" fill="#808080"/>
<path d="M7.2465 12.5989C4.95119 12.8426 3.35666 14.4879 2.61525 17.3926C2.12268 19.3274 1.99572 21.6531 2.31057 22.9278C2.56955 23.9485 3.4176 24.9844 4.39768 25.4821C4.83947 25.7055 5.47424 25.8883 6.00744 25.9492C6.32228 25.9899 8.71916 26 13.3047 25.9899L20.1348 25.9746L20.5664 25.8528C22.1711 25.416 23.268 24.3395 23.6692 22.8262C23.8774 22.0391 23.852 20.1602 23.6082 18.6774C23.075 15.3766 21.7242 13.3961 19.5863 12.7766C19.0988 12.6344 18.2254 12.5278 17.9664 12.5785C17.7176 12.6242 17.3723 12.8071 16.5903 13.3098C15.7574 13.8481 15.6406 13.909 15.016 14.1426C14.2949 14.4117 13.7008 14.5285 13.0051 14.5285C12.2942 14.5285 11.7457 14.427 11.0246 14.1731C10.3442 13.9293 10.3137 13.9141 9.24728 13.2387C8.68869 12.8832 8.27228 12.6547 8.10978 12.609C7.82541 12.5379 7.82541 12.5379 7.2465 12.5989Z" fill="#808080"/>
</svg>
