<svg width="19" height="20" viewBox="0 0 19 20" fill="none" xmlns="http://www.w3.org/2000/svg">
<path fill-rule="evenodd" clip-rule="evenodd" d="M16.0978 3.45691C14.375 1.73206 12.0838 0.781762 9.64276 0.780762C4.61306 0.780762 0.519409 4.87408 0.517446 9.90533C0.516742 11.5137 0.936942 13.0835 1.73552 14.4673L0.440918 19.196L5.27837 17.927C6.6112 18.654 8.11186 19.0372 9.63913 19.0377H9.64283C9.64313 19.0377 9.64261 19.0377 9.64291 19.0377C14.6721 19.0377 18.766 14.944 18.7681 9.91263C18.769 7.47433 17.8207 5.18167 16.0978 3.45691ZM9.64279 17.4966H9.63972C8.27881 17.4961 6.94394 17.1304 5.77943 16.4394L5.50251 16.275L2.63189 17.028L3.39813 14.2292L3.21778 13.9422C2.45857 12.7347 2.0576 11.339 2.05819 9.90585C2.05982 5.72408 5.46232 2.32195 9.64587 2.32195C11.6717 2.32258 13.576 3.11257 15.008 4.54619C16.44 5.97981 17.2281 7.88542 17.2273 9.912C17.2256 14.0941 13.8232 17.4966 9.64279 17.4966Z" fill="#D2AB66"/>
<path fill-rule="evenodd" clip-rule="evenodd" d="M13.8032 11.8162C13.5752 11.7021 12.4541 11.1506 12.2451 11.0744C12.0362 10.9984 11.8841 10.9603 11.7322 11.1886C11.5802 11.4168 11.1432 11.9304 11.0102 12.0826C10.8772 12.2347 10.7441 12.2538 10.5162 12.1396C10.2882 12.0255 9.55352 11.7848 8.68263 11.008C8.00477 10.4033 7.54719 9.65671 7.41414 9.42839C7.28116 9.20017 7.39999 9.07679 7.51415 8.96307C7.61672 8.86087 7.74218 8.69678 7.8562 8.56361C7.97017 8.43052 8.00818 8.33533 8.08419 8.18327C8.1602 8.03107 8.12223 7.8979 8.06518 7.78381C8.00818 7.66969 7.5522 6.5474 7.36221 6.09079C7.17707 5.64625 6.98913 5.70648 6.84915 5.69941C6.71635 5.69278 6.56415 5.69141 6.41217 5.69141C6.26018 5.69141 6.01312 5.74849 5.80416 5.9767C5.59518 6.20499 5.0061 6.75665 5.0061 7.87882C5.0061 9.00115 5.82313 10.0854 5.93714 10.2375C6.05112 10.3897 7.54494 12.6927 9.83218 13.6803C10.3762 13.9153 10.8009 14.0556 11.132 14.1606C11.6782 14.3342 12.1753 14.3097 12.5681 14.2509C13.0062 14.1855 13.9172 13.6994 14.1072 13.1668C14.2972 12.6342 14.2972 12.1776 14.2401 12.0826C14.1832 11.9875 14.0311 11.9304 13.8032 11.8162Z" fill="#D2AB66"/>
</svg>
