<svg id="Layer_1" data-name="Layer 1" xmlns="http://www.w3.org/2000/svg" viewBox="0 0 64 64"><defs><style>.cls-1{fill:#d2ab66;}</style></defs><path class="cls-1" d="M44.3,13.44A41.2,41.2,0,0,0,32.05,0l0,0-.06,0A41,41,0,0,0,19.38,14a37,37,0,0,0-4.06,11.72A37.81,37.81,0,0,0,17.75,46.6,40.71,40.71,0,0,0,32,64L32,64l.06,0a43.43,43.43,0,0,0,8.05-7.37,39.18,39.18,0,0,0,6.31-10.47A37.64,37.64,0,0,0,44.3,13.44Zm.17,30.32L44.14,41h.06c.61,0,1.21,0,1.81.07l.63,0a38.17,38.17,0,0,1-1.85,5.4C44.68,45.57,44.58,44.67,44.47,43.76Zm-2,7.18A37,37,0,0,1,39,55.8c-.62-.58-1.26-1.18-1.85-1.8.86-.48,1.71-1,2.56-1.47S41.51,51.46,42.45,50.94ZM33.52,61.1l.75-1.68c.65-1.48,1.31-3,2-4.43.62.58,1.24,1.18,1.85,1.79A39.57,39.57,0,0,1,33.52,61.1ZM17.37,22.94a35.15,35.15,0,0,1,1.68-5c.05-.13.1-.25.16-.37.1.87.2,1.74.31,2.6s.23,1.93.34,2.89Zm29.27,0h0c-.47,0-.93,0-1.39.05l-1.1.05c.21-1.83.42-3.66.65-5.49A34.25,34.25,0,0,1,46.64,23ZM28.29,47.86l1.79,2.53.92,1.3,0,0-1.07.52-1.13.56-.24.09c0-.88-.08-1.76-.13-2.64Zm3.46,2.68-1.18-1.67-2.25-3.18a1.88,1.88,0,0,1-.27-.59s-3.42-12.71-3.44-12.77a.83.83,0,0,1,0-.49l3.12-11.61c.07-.22.13-.44.18-.67a5,5,0,0,1,.39-1.16l1-1.35q1.38-2,2.79-3.92l3.68,5.19a2.89,2.89,0,0,1,.37.95l.07.28q1.59,6,3.19,11.89l.06.19a.9.9,0,0,1,0,.56q-1.65,6.18-3.32,12.34l-.05.22a2.5,2.5,0,0,1-.38,1L32,50.88A2.18,2.18,0,0,1,31.75,50.54Zm-8.67-28c1.13-.87,2.25-1.75,3.37-2.63q-.76,2.82-1.52,5.64c-.39,1.47-.79,2.94-1.19,4.41-.5-1.33-1-2.66-1.56-4l-.76-1.89c0-.08-.05-.17-.1-.17h0Zm1.84,20.27L23.76,42c-.33-.27-.67-.53-1-.79s-.94-.72-1.39-1.1c.37-1,.76-1.94,1.14-2.91L23.75,34c.42,1.54.84,3.09,1.25,4.64.48,1.78.95,3.56,1.44,5.34C25.92,43.64,25.42,43.25,24.92,42.85Zm4.95-28.94L29.09,15l-.29.42c-.17.24-.33.48-.5.71,0-.81.07-1.63.12-2.44s.09-1.72.12-2.58c.63.29,1.25.6,1.88.9l.57.28C30.63,12.85,30.25,13.38,29.87,13.91Zm5.85,2.24c-.88-1.22-1.8-2.52-2.71-3.85l1-.49,1.18-.57a1,1,0,0,1,.27-.11c0,.68.08,1.35.11,2C35.6,14.15,35.65,15.15,35.72,16.15ZM37.58,44c.51-2,1-3.95,1.57-5.91.37-1.37.74-2.73,1.1-4.09l.11.26c.41,1.06.82,2.11,1.24,3.16l1,2.64C41.14,41.26,39.53,42.52,37.58,44Zm3.73-21.12,1.34,1c-.38,1-1.94,4.93-2.33,5.92l-.08.18q-.65-2.52-1.34-5c-.44-1.66-.89-3.32-1.32-5C38.83,21,40.07,21.92,41.31,22.89ZM43.46,18c-.17,1.44-.34,2.88-.5,4.31a.59.59,0,0,0,0,.14l0,.13c-.93-.75-1.87-1.47-2.81-2.2l-3-2.33c0-1-.1-2.05-.15-3.07-.06-1.22-.13-2.44-.18-3.66a6,6,0,0,1,.55.31l6.28,3.61a.34.34,0,0,1,.18.39ZM27,15.72,27,17.93c-1.55,1.24-3.13,2.46-4.7,3.67l-1.19.91c-.11-1-.24-2.06-.36-3.09s-.26-2.15-.38-3.22c0-.09,0-.18,0-.28s-.05-.4-.06-.55a1.27,1.27,0,0,1,.45-.32l2.83-1.63C24.75,12.7,26,12,27.25,11.28,27.2,12.76,27.12,14.24,27,15.72ZM20.26,48.37c.28-2.29.54-4.57.81-6.87,1.14.85,2.25,1.72,3.36,2.59.84.65,1.67,1.3,2.47,1.88.13,1.93.22,3.86.32,5.79l0,1-6.89-4C20.21,48.7,20.24,48.47,20.26,48.37Zm13.1,2.81a3.9,3.9,0,0,0,.25-.36c.29-.4.58-.81.86-1.22.4-.57.81-1.15,1.23-1.71,0,1-.09,2-.14,3,0,.68-.07,1.35-.11,2-.47-.2-1-.43-1.4-.66s-.69-.35-1-.5A3,3,0,0,1,33.36,51.18Zm3.5-1c.07-1.4.14-2.79.18-4.11l1.47-1.15c1.47-1.14,2.93-2.28,4.41-3.4l.82,6.85c0,.32,0,.4-.14.44-2.28,1.32-4.57,2.65-6.87,4ZM41.22,33c0-.13-.1-.26-.15-.39a4.84,4.84,0,0,1-.23-.61c.45-1.2.93-2.39,1.4-3.58.39-1,.78-2,1.16-3l.15-.35c.78,1.17,1.54,2.35,2.3,3.54.6.94,1.2,1.88,1.81,2.82a1,1,0,0,1,.1.89l-3.22,5c-.14.2-.27.41-.4.61s-.37.6-.58.89c-.47-1.15-.93-2.31-1.38-3.47Zm3.35-8.72c.79,0,1.57-.06,2.36-.09a3.45,3.45,0,0,1,.16.67c0,.12,0,.23.07.35a32.25,32.25,0,0,1,.52,3.9c-.54-.8-1.06-1.61-1.57-2.42l-1.29-2a1.63,1.63,0,0,0-.11-.17A1.1,1.1,0,0,1,44.57,24.29ZM37.1,10c.61-.61,1.22-1.2,1.85-1.78a35.82,35.82,0,0,1,3.5,4.86l-.92-.53Q39.31,11.28,37.1,10Zm-.85-1c-.45-1-.89-2-1.33-3L33.51,2.9c.57.43,1.1.91,1.63,1.38l.31.28a34.68,34.68,0,0,1,2.64,2.68C37.48,7.83,36.87,8.43,36.25,9Zm-1,.79a.78.78,0,0,1-.18.11l-1,.46c-.62.29-1.23.59-1.86.9a.43.43,0,0,1-.21.06h-.08l-1.58-.76c-.51-.25-1-.5-1.52-.73.52-1.22,1.06-2.43,1.6-3.63l1.07-2.39.21-.5A6.67,6.67,0,0,1,32,2.65c.53,1.17,1,2.34,1.57,3.52S34.65,8.59,35.2,9.8ZM30.47,2.91Q29.14,6,27.74,9c-.62-.58-1.23-1.18-1.82-1.78a10.17,10.17,0,0,1,.83-.91l.49-.5A38.32,38.32,0,0,1,30.47,2.91ZM21.54,13.07A39.22,39.22,0,0,1,25.05,8.2c.46.42.9.85,1.34,1.28l.51.51ZM16.31,29.15a32.19,32.19,0,0,1,.75-4.95l.43,0c.65,0,1.29.06,1.94.07-.68,1.09-1.38,2.16-2.07,3.24Zm.06,2.28,1.72-2.67q1.17-1.83,2.34-3.63c.64,1.53,1.25,3.09,1.86,4.64l.84,2.13c.05.07,0,.16,0,.32-.46,1.14-.91,2.29-1.36,3.43s-.85,2.16-1.29,3.24c0,0-3.36-5.21-4.07-6.29A1,1,0,0,1,16.37,31.43Zm3.06,8.27-2.37.11a31,31,0,0,1-.74-4.94c.72,1.1,1.44,2.21,2.15,3.33ZM18.33,41c.49,0,1-.05,1.48-.05h.05l-.27,2.27c-.13,1.07-.26,2.14-.38,3.21a34.48,34.48,0,0,1-1.85-5.39ZM24,52.34c1,.56,1.92,1.12,2.9,1.66a2,2,0,0,1-.29.3,1.34,1.34,0,0,0-.21.2c-.22.2-.43.41-.64.62s-.47.46-.72.68a36.54,36.54,0,0,1-3.5-4.87Zm3.26,3.11.47-.46q1.4,3,2.72,6.11a41.05,41.05,0,0,1-4.55-4.33C26.35,56.33,26.81,55.89,27.27,55.45Zm4.63,5.69-1.38-3.08c-.58-1.29-1.15-2.58-1.72-3.87l1.59-.77,1.43-.7a.49.49,0,0,1,.19-.07l.1,0,1.16.56c.64.31,1.29.62,1.92.94q-1.14,2.6-2.31,5.19l-.88,2A1.64,1.64,0,0,1,31.9,61.14ZM47.68,34.86A34.19,34.19,0,0,1,47,39.79h-.12c-.7,0-1.39,0-2.08-.08h-.18c.34-.58.71-1.15,1.07-1.7.23-.34.45-.68.67-1l.42-.66C47.05,35.83,47.36,35.34,47.68,34.86Z"/></svg>