<svg id="Layer_1" data-name="Layer 1" xmlns="http://www.w3.org/2000/svg" viewBox="0 0 64 64"><defs><style>.cls-1{fill:#d2ab66;}</style></defs><path class="cls-1" d="M32,0H0V64H64V0ZM54.45,18.87H45V9.36L62.06,1.94ZM32,49,20.18,44,15.44,32l4.74-12L32,15l11.84,5,4.74,12L43.82,44ZM10.45,43.12l4.25-9.46,4,10.17H10.45Zm4.25-12.8-4.25-9.45v-.72h8.28ZM14,32l-3.58,8V24ZM49.3,33.68l4.25,9.45v.72H45.27ZM50,32l3.58-8V40Zm-.67-1.67-4-10.17h8.27v.71Zm-5.63-11.8-10-4.26,10-4.35ZM32,13.57,21.89,9.17H42.15Zm-1.66.69-10,4.28V9.91ZM19,18.85H9.55L1.93,1.92,19,9.34ZM9.15,21.14v21.7L1.3,60.32V3.68Zm.4,24H19v9.51L1.94,62.06Zm10.78.33,10,4.26-10,4.35Zm11.65,5,10.13,4.4H21.85Zm1.66-.69,10-4.28v8.63ZM45,45.15h9.48l7.62,16.93L45,54.66Zm9.88-2.29V21.16L62.7,3.68V60.32ZM60.27,1.3,45,7.94V7.87H19v.06L3.78,1.3H60.27ZM3.73,62.7,19,56.06v.07H45v-.06L60.22,62.7H3.73Z"/></svg>