<svg id="Layer_1" data-name="Layer 1" xmlns="http://www.w3.org/2000/svg" viewBox="0 0 64 64"><defs><style>.cls-1{fill:#d2ab66;}</style></defs><path class="cls-1" d="M53,20v-.15a35.19,35.19,0,0,0-4.8-10.21.54.54,0,0,0-.06-.11v0l-.05-.07a25.12,25.12,0,0,0-7.24-6.86,17,17,0,0,0-17.76-.08A23.19,23.19,0,0,0,15.91,9.3a.42.42,0,0,0-.15.24A33.08,33.08,0,0,0,11,19.82,42.25,42.25,0,0,0,9.26,31.93,41.74,41.74,0,0,0,11,44v.14a33.4,33.4,0,0,0,4.8,10.22.54.54,0,0,0,.06.11v0l.05.07a25.22,25.22,0,0,0,7.23,6.86A16.42,16.42,0,0,0,32,64a17.63,17.63,0,0,0,8.85-2.47A23.94,23.94,0,0,0,48,54.7a.89.89,0,0,0,.21-.31A34.75,34.75,0,0,0,53,44.11,42.25,42.25,0,0,0,54.74,32,41.69,41.69,0,0,0,53,20ZM51.71,44.3a38.49,38.49,0,0,1-3.49,7.82l-.26-10Zm-3.49-3.52L53.42,34A45.32,45.32,0,0,1,52,43ZM40.83,60l-1.64-5.64,7.23.4A24.43,24.43,0,0,1,40.83,60ZM24.74,54.35,23.1,60a24.43,24.43,0,0,1-5.59-5.24ZM12.21,44.3,16,42.14l-.26,10A35,35,0,0,1,12.21,44.3Zm3.49-3.52L11.91,43A45.92,45.92,0,0,1,10.5,34ZM12.21,19.7a40.15,40.15,0,0,1,3.49-7.82l.26,10Zm3.49,3.52-5.2,6.83A45.91,45.91,0,0,1,11.91,21ZM23.1,4l1.64,5.64-7.23-.4A24.43,24.43,0,0,1,23.1,4ZM39.19,9.65,40.83,4a24.43,24.43,0,0,1,5.59,5.24ZM53.32,32l-5.75,7.61L45.3,32l2.27-7.61ZM33.23,50l6.63-3.93-1.93,6.69ZM30.7,50,26,52.77l-1.93-6.69Zm0-36-6.63,3.93L26,11.23Zm2.53,0,4.7-2.76,1.93,6.69ZM42,43.39l2.66-9.11,1.89,6.45ZM17.37,40.73l1.9-6.45,2.65,9.11Zm4.55-20-2.65,9.1-1.9-6.45Zm24.63,2.58-1.89,6.45L42,20.61Zm.14-1.33-5.2-3.1-2.31-8L47,10.44ZM44,32,40.44,44.29l-8.48,5-8.4-5L19.92,32l3.56-12.29,8.48-5,8.41,5ZM17,10.51l7.79.41-2.31,8-5.2,3Zm.28,31.54,5.2,3,2.31,8L17,53.49ZM47,53.49l-7.78-.41,2.31-8,5.2-3ZM39.69,3.35,38.07,8.79,33.15,1.31A16.14,16.14,0,0,1,39.69,3.35ZM32,13.31l-5.45-3.17L32,1.86l5.45,8.21Zm-1.18-12L25.86,8.79,24.24,3.35A16.09,16.09,0,0,1,30.78,1.31ZM18.62,32l-2.26,7.61L10.6,32l5.76-7.61Zm5.62,28.65,1.62-5.44,4.92,7.48A16.09,16.09,0,0,1,24.24,60.65ZM32,50.76l5.45,3.17L32,62.21l-5.45-8.28Zm1.19,11.93,4.92-7.48,1.62,5.44A16.14,16.14,0,0,1,33.15,62.69ZM48,21.86l.26-10a35.45,35.45,0,0,1,3.5,7.85Zm5.46,8.19-5.2-6.83L52,21A45.31,45.31,0,0,1,53.42,30.05Z"/></svg>