<svg id="Layer_1" data-name="Layer 1" xmlns="http://www.w3.org/2000/svg" viewBox="0 0 64 64"><defs><style>.cls-1{fill:#d2ab66;}</style></defs><path class="cls-1" d="M42,0H22A22,22,0,0,0,0,22V42A22,22,0,0,0,22,64H42A22,22,0,0,0,64,42V22A22,22,0,0,0,42,0ZM56.42,16.48H47.78V8.63h8.64ZM56,17.78,49.56,29.91,47.88,17.78ZM46.48,46.22v.09L32,48.36l-14.48-2v-.09h-.08L15.46,32l2-14.22h.08v-.09L32,15.64l14.48,2.05v.09h.08l2,14.22-2,14.22ZM14.8,32h0Zm34.3,0h0ZM34.27,14.65,46.48,9v7.38ZM32,14.27,18.39,8,32,1.37,45.61,8ZM17.52,9l12.21,5.65L17.52,16.38Zm-1.3,7.48H7.58V8.63h8.64Zm-.1,1.3L14.44,29.91,8,17.78ZM7,18.64,14.07,32,7,45.36,1.36,32Zm.58,28.88h8.64v7.85H7.58ZM8,46.22l6.43-12.13,1.68,12.13Zm21.72,3.13L17.52,55V47.62Zm2.27.38L45.61,56,32,62.63,18.39,56ZM46.48,55,34.27,49.35l12.21-1.73Zm1.3-7.48h8.64v7.85H47.78Zm.1-1.3,1.68-12.13L56,46.22ZM57,45.36,49.93,32,57,18.64,62.64,32Zm5.7-16.57-5-11.8V8.54A20.62,20.62,0,0,1,62.7,22ZM56.61,7.33H47.28l-12.45-6H42A20.62,20.62,0,0,1,56.61,7.33Zm-27.44-6-12.45,6H7.39A20.62,20.62,0,0,1,22,1.3ZM6.28,8.54V17l-5,11.8V22A20.62,20.62,0,0,1,6.28,8.54Zm-5,26.67,5,11.8v8.45A20.62,20.62,0,0,1,1.3,42ZM7.39,56.67h9.33l12.45,6H22A20.62,20.62,0,0,1,7.39,56.67Zm27.44,6,12.45-6h9.33A20.62,20.62,0,0,1,42,62.7Zm22.89-7.24V47l5-11.8V42A20.62,20.62,0,0,1,57.72,55.46Z"/></svg>