<svg id="Layer_1" data-name="Layer 1" xmlns="http://www.w3.org/2000/svg" viewBox="0 0 64 64"><defs><style>.cls-1{fill:#d2ab66;}</style></defs><path class="cls-1" d="M63.28,12.51C61.94,8.1,58.81,4.81,54,2.71,43.59-1.78,35.18,6.16,32,9.85,28.82,6.16,20.41-1.78,10,2.71c-4.84,2.1-8,5.39-9.31,9.8-2,6.5.17,15.1,6,24.21A102,102,0,0,0,31.63,62.35l.38.28.38-.28A101.58,101.58,0,0,0,57.24,36.73C63.11,27.61,65.26,19,63.28,12.51ZM62,12.88c.1.33.18.66.25,1l-6.11,2.85L57.83,6.55A13.1,13.1,0,0,1,62,12.88Zm-32-.93-10.3,2.5,3.3-4.2Zm10.84-1.7,3.3,4.2L33.92,12ZM32,12.82,45.16,16V27l-.17.18,0,.08L38.56,37,32,43.11,25.44,37,19,27.3l.05-.08L18.84,27V16ZM17.54,25.75l-7.6-7.57,7.6-1.84Zm.66,2.76,5.09,7.6-8-2.92ZM31,44v.58l-2.93,2-1.82-7Zm-2.57,3.9L32,45.48l3.54,2.41L32,60.64ZM33,44.57V44l4.74-4.42-1.81,7ZM45.8,28.51l2.93,4.68-8,2.93Zm.66-12.17,7.6,1.84-7.6,7.57ZM46.26,15l-3.95-5L56.52,6.47,54.82,17ZM17.74,15,9.18,17,7.48,6.47,21.69,9.92ZM8.81,18.89l8.55,8.52-3.29,5.25-9.9-5.42ZM12,33l-5.76.36a47.33,47.33,0,0,1-2.42-4.83Zm2.88,1.42L24.54,38l2.28,8.81-12.6-2.6ZM30.46,59.86c-2.77-2.13-5.29-4.28-7.56-6.38l4.49-4.61Zm6.15-11,4.49,4.61c-2.24,2.08-4.74,4.21-7.49,6.33ZM39.46,38l9.65-3.52.67,9.73-12.6,2.6Zm10.47-5.29-3.29-5.25,8.55-8.52,4.64,8.35Zm10.23-4.12a45.23,45.23,0,0,1-2.41,4.83L52,33ZM53.45,3.9A19.31,19.31,0,0,1,56,5.26L42.49,8.53l2.6-5.6A14.09,14.09,0,0,1,53.45,3.9Zm-10-.57-2.6,5.6-8,1.94h0C34.63,8.74,38.45,4.87,43.47,3.33ZM31.16,10.87h0l-8-1.94L20.54,3.34C25.55,4.88,29.37,8.74,31.16,10.87Zm-20.61-7a14,14,0,0,1,8.36-1l2.6,5.6L8,5.26A19.31,19.31,0,0,1,10.55,3.9ZM6.17,6.55,7.82,16.72,1.71,13.87c.07-.33.15-.66.25-1A13.17,13.17,0,0,1,6.17,6.55ZM1.46,15.19l6.29,2.93L3.06,26.58A24.06,24.06,0,0,1,1.46,15.19ZM7,34.63l6.62-.42L13,43a73.49,73.49,0,0,1-5.15-7C7.55,35.56,7.26,35.09,7,34.63Zm8.34,11.09L26.43,48,22,52.59C19.4,50.16,17.19,47.83,15.32,45.72ZM42.05,52.6,37.58,48l11.11-2.29C46.83,47.83,44.62,50.17,42.05,52.6ZM51,43l-.6-8.79,6.62.42c-.28.47-.57.94-.88,1.41A70,70,0,0,1,51,43Zm9.94-16.42-4.69-8.46,6.29-2.93A24.06,24.06,0,0,1,60.94,26.58Z"/></svg>