<svg id="Layer_1" data-name="Layer 1" xmlns="http://www.w3.org/2000/svg" viewBox="0 0 64 64"><path d="M32.43,0A32.82,32.82,0,0,0,26.8.42,31.56,31.56,0,0,0,9.1,9.65a28.55,28.55,0,0,0-4,4.92A32.1,32.1,0,0,0,5,49.17,32.11,32.11,0,0,0,25.1,63.27a44,44,0,0,0,4.51.7h0a54.41,54.41,0,0,0,6.26-.17h0a31.77,31.77,0,0,0,18.73-9.18,32,32,0,0,0,9.18-18.73,42.45,42.45,0,0,0,0-7.81,40,40,0,0,0-1-5A32.09,32.09,0,0,0,38,.55,33.32,33.32,0,0,0,32.43,0Zm1.23,1.35a32.65,32.65,0,0,1,7,1.18c.57.16,1.37.43,2,.67l.78.3L43.24,4c-.24.58-.58,1.38-1,2.26s-.73,1.67-1,2.25c-.06.14-.1.21-.15.32l-.29-.28-2-1.94c-1.56-1.57-3.52-3.54-5.11-5.17l-.12-.13Zm-3.34,0L29.16,2.51,25,6.57C23.62,8,23,8.59,22.62,8.92c-.08-.16-.15-.33-.25-.56-.25-.58-.58-1.33-.9-2.08l-.88-2.06c-.11-.25-.19-.45-.26-.62.23-.1.57-.25,1-.4.84-.31,2-.66,3-.93A30,30,0,0,1,30.32,1.36Zm1.68.2,4.16,4.2C37.4,7,38.53,8.15,39.34,9c.37.37.64.66.86.89l-.59.29c-.73.36-1.74.85-2.86,1.38l-4.59,2.19-.33.15-.6-.28L25.79,11c-1-.5-1.89-.91-2.26-1.08h0l1.09-1.09,4.65-4.57L32,1.56ZM44.7,4l.08,0c.33.14.9.42,1.75.88a33,33,0,0,1,6.32,4.49H42.36v0L44,5.74c.24-.56.46-1,.62-1.41L44.7,4Zm-25.6.09,0,0c.12.29.72,1.67,1.35,3.12.32.72.61,1.39.82,1.89l.1.22h-.47c-.92,0-2.45,0-4.89,0H11.19a32.14,32.14,0,0,1,4.67-3.55c.56-.35,1.43-.83,2.18-1.22.37-.2.71-.38,1-.5l.09,0Zm-8.85,6.61H20.34l1.16,0-.42,1.33c-.32,1.06-.69,2.23-.8,2.61-.39,1.26-.75,2.41-1,3.25-.13.42-.25.77-.33,1s-.06.17-.08.23l-.41.16c-.5.19-1.45.52-3.24,1.15l-4,1.41-.9.32c0-.31,0-.68,0-1.17,0-1.15,0-2.74,0-4.49V10.73Zm37.59,0h5.74v2.14c0,1.47,0,4.29.06,6.28,0,1.07,0,2,0,2.6v.31l-.95-.31-3.28-1.11-3.24-1.12-1.08-.38-.21-.08a.11.11,0,0,1,0-.06c-.06-.15-.14-.38-.23-.66-.19-.54-.43-1.29-.68-2.1-.61-1.94-1.09-3.47-1.41-4.51-.14-.42-.23-.72-.31-1h5.59ZM22.8,11l.7.32,5.76,2.76,1,.47-5.28,2.16c-1.47.6-2.81,1.15-3.8,1.54-.29.12-.47.2-.7.28l.09-.26c.22-.71.53-1.68.86-2.75l1.32-4.26c0-.14.06-.17.09-.26ZM41,11c.07.2.14.41.23.71.24.75.55,1.75.87,2.77.57,1.81,1.06,3.36,1.26,4L38.5,16.59l-4.12-1.65-.92-.37,2.26-1.08,4.23-2Zm13.93.51a32.66,32.66,0,0,1,3.54,4.76c.29.49.72,1.28,1.09,2s.61,1.26.71,1.51h0l-.62.26-1.89.79L55,22V20c0-1.5,0-4.33-.06-6.3l0-2.21ZM9,11.73v4.4H9v4.95c0,.45,0,.77,0,1.06l-.06,0L7.08,21.3,3.93,19.87l-.14-.05a38.49,38.49,0,0,1,1.8-3.51A33.71,33.71,0,0,1,9,11.73Zm22.85,3.61,0,0,.38.14,1.35.53,4.36,1.73,5.91,2.37,2.22,5.46c1.27,3.11,2.38,5.86,2.47,6.06l.08.22-.27.62-2.56,6-2.13,5-4.69,2c-2.69,1.12-5.46,2.28-6.16,2.56l-1.08.45-2.89-1.18c-3.91-1.59-6.2-2.53-7.52-3.08L20,43.68l-.21-.1,0-.08c-.06-.13-.15-.32-.25-.55-.2-.47-.48-1.1-.76-1.79l-2.48-5.9c-.39-.93-.75-1.79-1-2.43-.13-.31-.23-.57-.3-.75l0-.11c0-.08.08-.18.14-.32l.55-1.32L17.4,26l2.5-5.83.75-.31,9.2-3.76c.91-.38,1.43-.59,1.73-.7s.29-.09.23-.1Zm13.72,5.4.48.16L49.21,22,52.42,23l.93.32a.53.53,0,0,0-.06.1l-.82,1.49c-.65,1.17-1.42,2.56-1.94,3.47-.21.38-.65,1.16-1,1.75a2.25,2.25,0,0,0-.12.21s0,0,0,0c-.24-.57-.57-1.37-.93-2.25-.71-1.76-1.76-4.34-2.33-5.73-.25-.62-.46-1.15-.63-1.6Zm-27.34.11c-.05.13-.06.16-.13.32-.44,1-1.23,2.89-2.61,6.1l-1.24,2.86c-.05.11-.07.17-.12.27a1.74,1.74,0,0,0-.1-.19L12.1,26.56C11.64,25.65,11,24.5,10.77,24c-.1-.18-.16-.31-.23-.45l.94-.34,3.15-1.11L17.76,21l.43-.15ZM60.72,21l.41,1.22a29.78,29.78,0,0,1,1.56,8.09l-.4-.38-3-3L55.48,23.2l1.21-.51,2.72-1.15,1.17-.48.14,0Zm-57.41,0,.54.23L6,22.22l2.11,1,.38.17L8,23.82C7.2,24.6,5.82,26,3.45,28.28c-1,1-1.66,1.63-2.11,2.06a33.66,33.66,0,0,1,.79-5.57c.14-.58.47-1.65.77-2.55.15-.45.3-.87.41-1.16Zm51.16,3c.23.21.51.48.87.84L58.45,28l4,4-4,3.93-3.1,3-.86.82c-.13-.21-.26-.45-.44-.76l-1.64-2.91-1.63-2.94-.54-1-.12-.23h0c.06-.13.17-.34.33-.64.31-.6.85-1.57,1.68-3,.51-.89,1.31-2.31,1.78-3.15.21-.38.41-.71.56-1Zm-45,.18s0,.05,0,.08l.8,1.51c.61,1.19,1.59,3.1,2.19,4.25l1,1.86-2,4c-.59,1.16-1.13,2.22-1.53,3l-.35.67-.27-.25L7.38,37.61c-1.5-1.45-3.43-3.32-5.15-5L1.58,32l1.29-1.27,5.54-5.44,1-1Zm40,9.12.32.57c.45.79,1,1.84,1.61,2.88l1.58,2.87.42.77-.28.1-2,.66-4.68,1.52h0l-.07,0-1,.33c.08-.19.14-.35.25-.59.33-.79.77-1.84,1.25-3l2.6-6.11a.25.25,0,0,0,0-.07Zm-48.07.16.84.82,5.69,5.54.72.71c-.2.12-.4.23-.86.47L4.49,42.85l-1,.55c-.07-.17-.14-.34-.23-.59-.23-.63-.51-1.47-.74-2.25a31.51,31.51,0,0,1-1.18-7Zm12.76,0c.14.34.29.69.5,1.17l1.86,4.42,1.21,2.9c.16.37.28.67.4,1l-4.39-1.54-2.51-.89-.53-.19.35-.72,1.48-2.93L14,33.82l.14-.26Zm48.58,0a30.35,30.35,0,0,1-1.87,9.06c-.1.27-.19.49-.27.68l-.36-.19-3-1.57-1.61-.84-.1-.05.08-.07,1.26-1.26c3.3-3.24,5.27-5.17,5.89-5.76ZM10.37,41.72l.74.25L14.17,43l3.1,1.09,1.07.38.32.12,0,0a5.05,5.05,0,0,1,.23.58c.22.63.59,1.78,1.23,3.83.39,1.26.75,2.41,1,3.26.1.32.17.54.23.76l-1.14,0-4.35,0H10.25l.06-5.77c0-1.73,0-3.31,0-4.45,0-.49,0-.86,0-1.17Zm43.28.07c0,.32,0,.7,0,1.21,0,1.15,0,2.73.05,4.47l.06,5.82H47.89l-4.52,0-1.22,0s0,0,0,0c.12-.4.27-.94.45-1.52C43,50.5,43.57,48.39,44,47l.67-2.29,4.68-1.52,3.5-1.13.82-.26Zm-44.6.08L9,47.24C9,49,9,50.52,9,51.65c0,.25,0,.39,0,.59-.34-.39-.71-.82-1-1.16a32.83,32.83,0,0,1-2.29-3.33c-.27-.44-.73-1.29-1.11-2-.19-.37-.36-.72-.49-1a.93.93,0,0,0,0-.1l.47-.28c.71-.4,2-1.11,4.45-2.41l.12-.07Zm45.9.05.27.14,3.13,1.62,1.48.76.22.11c-.06.14-.12.28-.21.46-.25.51-.57,1.15-.85,1.66A36.65,36.65,0,0,1,56.13,51c-.31.39-.73.88-1.07,1.26V50.89c0-1.49,0-4.3-.06-6.27l0-2.7ZM43.14,45.19c-.44,1.52-1.74,5.92-2,7q-.15.51-.27.87l-1-.47L36.81,51l-3.05-1.53-.42-.21.33-.15,3.07-1.28,2.63-1.09,2.93-1.22Zm-22.78.12,2.07.81c1.67.66,3.6,1.45,4.62,1.89l2.23.91.85.35-2.24,1.08-2.45,1.18-2.07,1-.65.32c-.07-.21-.15-.44-.25-.77l-1-3.15c-.39-1.23-.74-2.36-1-3.19,0-.17-.08-.27-.13-.41ZM31.75,50l.28.13,1.06.51,3.13,1.54c1.13.55,2.26,1.12,3.09,1.54l.82.42-.35.36c-.48.51-1.16,1.2-1.9,2L33.41,61,32,62.44l-4.32-4.28-3.32-3.3-.9-.91.22-.12,2-1,4.5-2.16c.45-.22.88-.42,1.2-.55l.37-.15ZM15.94,54.41c2.45,0,4,0,4.9,0h.48l-2.24,5.42c-.15-.07-.31-.14-.49-.24a30.68,30.68,0,0,1-7.54-5.21Zm26.33.17h10.5a31.18,31.18,0,0,1-7.48,5.11h0l-.54.26c-.05-.11-.1-.2-.16-.34-.23-.47-.53-1.12-.85-1.81-.56-1.21-1.11-2.42-1.46-3.23ZM22.52,55l.87.83c.85.81,2,1.95,3.28,3.21l.87.86,2.8,2.78c-.34,0-.52,0-1.5-.11a31.22,31.22,0,0,1-5.93-1.21c-.42-.13-1.16-.39-1.8-.62l-.78-.3c.05-.16.12-.33.21-.56.23-.6.55-1.4.87-2.21s.66-1.61.91-2.23C22.4,55.24,22.45,55.12,22.52,55Zm18.55.12c.16.37.69,1.53,1.23,2.73l1.21,2.66-.6.23a30.75,30.75,0,0,1-8.72,1.92l-.55,0c.74-.78,2.49-2.57,4.27-4.37.94-1,1.85-1.89,2.53-2.57l.64-.64Z"/></svg>