<svg id="Layer_1" data-name="Layer 1" xmlns="http://www.w3.org/2000/svg" viewBox="0 0 64 64"><defs><style>.cls-1{fill:#d2ab66;}</style></defs><path class="cls-1" d="M32,64a21.2,21.2,0,0,1-8.75-1.82L22.8,62a20.47,20.47,0,0,1-7.94-6.27L14.41,55C11,50.34,9.16,44,9.16,36.56,9.16,19.62,31.64.34,31.86.15L32,0l.09.14c.23.2,22.71,19.53,22.71,36.42C54.84,44,53,50.34,49.58,55c0,0-.4.61-.44.66A20.47,20.47,0,0,1,41.2,62l-.44.22A21.28,21.28,0,0,1,32,64Zm-7.83-3,.24.21a20,20,0,0,0,5.44,1.27l.51,0L25.83,57Zm9.38,1.36.6.12a19.83,19.83,0,0,0,5.43-1.27l.2-.08L38.17,57ZM26.79,56l5.13,6.18,5.32-6L32,53.48Zm-9.43.3a19.84,19.84,0,0,0,5.42,4.16l.2.1,1.81-4-8-.82Zm21.93.09,1.59,4.12.33,0a19.82,19.82,0,0,0,5.43-4.17l.54-.59Zm-23.22-2,8.68.83-1.69-6.07-5.25-2.62ZM41,49.05l-1.85,6,8.69-.58-1.65-8ZM33.53,52.7,37.79,55l1.66-5.23ZM26.06,55l4.4-2.08-5.91-3.09Zm-13.24-6.3,0,.29a27.72,27.72,0,0,0,1.77,3.7l.26.48,1.63-6.41ZM48.94,53.1l.45-.44A28.4,28.4,0,0,0,51.16,49l.07-.16L47.5,46.72ZM25.25,23.32,20.79,37l3.26,11.11,7.9,4,8-3.9,3.31-11.11L38.79,23.37,32,18.47Zm22.37,22,4,2.22.21-.29A36.24,36.24,0,0,0,53.3,39l.09-1ZM10.7,39a36.62,36.62,0,0,0,1.47,8.27l.07.23,4.11-2L10.61,38Zm7.42,6.2,4.22,2.17-2.25-8.28Zm23.4,2.05,4.31-1.93-1.92-6.22ZM11.17,36.57,17,44.15,19.44,37l-2.39-8ZM44.56,37l2.27,7.16,6-7.43L47,29Zm3-9.15,5.53,7.24.11-.79a27.3,27.3,0,0,0-2.44-8.52l-.16-.36ZM13.28,25.75a27.19,27.19,0,0,0-2.44,8.5l-.07.73,5.72-7-3-2.58Zm30.49,9L46,28.16l-5.52-3.77ZM18.09,28.05,20,34.73l3.53-10.34Zm-.47-10a61.74,61.74,0,0,0-3.53,6l-.07.15,2.78,2.36,1.54-9.23-.17-.07Zm28.08-.78L47,26.43,50,24.26l0-.27a65,65,0,0,0-3.54-6l-.55-.83Zm-5.86,5.27,5.76,3.81L44.29,16.18l-6-1.55ZM19.79,16.1,18.24,26.22l5.88-3.65,1.62-7.94Zm13.33,1.58,5.06,3.79-1.13-6.59Zm-7.46,3.68,5.22-3.52-3.93-3Zm1.6-7.82L31.94,17l4.77-3.32L32,2.56Zm11.11-.27,5.51,1.5-.67-1.12-.4-.49c-1-1.19-1.89-2.32-2.82-3.37l-.36-.39ZM24,9.79c-.93,1.05-1.85,2.18-2.82,3.38L20,14.62l5.54-1.23-1.19-4ZM33.8,3.67l3.47,8.2,1.36-3.42-.1-.19c-1.28-1.41-2.6-2.76-3.83-3.9l-.78-.77Zm-4.5.69c-1.23,1.14-2.55,2.48-3.82,3.89l-.09.1,1.15,3.51,3.69-8.17-.15-.1Z"/></svg>