<svg id="Layer_1" data-name="Layer 1" xmlns="http://www.w3.org/2000/svg" viewBox="0 0 64 64"><path d="M57.73,6.12,51.6,0H12.4L6.27,6.12V57.88L12.4,64H51.6l6.13-6.12V6.12ZM56.43,56,52.8,52.41l0-.17V11.76l0-.17L56.43,8V56Zm-9.38,2.11,4.83-4.82,4.28,4.28-4.83,4.82ZM12.67,62.43,7.84,57.61l4.28-4.28L17,58.15ZM17,5.85l-4.83,4.82L7.84,6.39l4.82-4.82Zm.23,1.61-.09,3.48h-3.4ZM51.34,1.57l4.82,4.82-4.28,4.28L47.05,5.85ZM32,53.63,18.36,51.82,17.89,32l.47-19.82L32,10.37l13.64,1.81L46.11,32l-.47,19.82ZM46.94,12.24h4.35l-4,15.15ZM45.51,6.7l.1,4.17L35.27,9.5ZM18.39,10.87l.1-4.17L28.73,9.5ZM16.7,27.39l-4-15.15h4.35Zm.36,24.37H12.71l4-15.15Zm1.43,5.54-.1-4.17L28.73,54.5Zm27.12-4.17-.1,4.17L35.27,54.5ZM47.3,36.61l4,15.15H46.94Zm4.16,10.68L47.43,32l4-15.29V47.29ZM50.31,11h-3.4l-.09-3.49ZM32,9,22.7,6.5H41.3ZM12.54,16.71l4,15.29-4,15.29V16.71Zm1.15,36.35h3.4l.09,3.49ZM32,55l9.3,2.54H22.7Zm14.91-1.9h3.4l-3.49,3.48ZM49.77,1.3l-3.9,3.9H18.13l-3.9-3.9H49.77ZM7.57,8l3.63,3.63,0,.17V52.24l0,.17L7.57,56V8ZM14.23,62.7l3.9-3.9H45.87l3.9,3.9H14.23Z"/></svg>