<svg id="Layer_1" data-name="Layer 1" xmlns="http://www.w3.org/2000/svg" viewBox="0 0 64 64"><defs><style>.cls-1{fill:#d2ab66;}</style></defs><path class="cls-1" d="M48,0H16L0,15.14V48.86L16,64H48L64,48.86V15.14ZM58.79,16.68,46.64,5.18,48,1.78,62.19,15.21ZM41.87,48.6H22.13L15.4,42.23V21.77l6.73-6.37H41.87l6.73,6.37V42.23Zm-.18-34.5H22.31L21,10.7h22.1Zm-20.59.48-6.49,6.14-3.4-1.46,8.54-8.08Zm-7,7.34V42.08l-3.4,1.47V20.45Zm.51,21.36,6.49,6.14-1.35,3.4-8.54-8.08Zm7.7,6.62H41.69l1.36,3.4H21Zm20.59-.48,6.49-6.14,3.4,1.46-8.54,8.08Zm7-7.34V21.92l3.4-1.47v23.1Zm-.51-21.36L42.9,14.58l1.35-3.4,8.54,8.08ZM43.56,9.4H20.44L19.08,6H44.92Zm-24.33.48L9.91,18.7l-3.4-1.46L17.87,6.48Zm-9.83,10V44.11L6,45.57V18.43ZM9.91,45.3l9.32,8.82-1.36,3.4L6.51,46.76Zm10.53,9.3H43.56L44.92,58H19.08Zm24.33-.48,9.32-8.82,3.4,1.46L46.13,57.52Zm9.83-10V19.89L58,18.43V45.57ZM54.09,18.7,44.77,9.88l1.36-3.4L57.49,17.24Zm-8.65-14H18.56L17.21,1.3H46.79Zm-28.08.48L5.21,16.68l-3.4-1.47L16,1.78ZM4.7,17.87V46.13L1.3,47.59V16.41Zm.51,29.45,12.15,11.5L16,62.22,1.81,48.79Zm13.35,12H45.44l1.35,3.4H17.21Zm28.08-.48,12.15-11.5,3.4,1.47L48,62.22ZM59.3,46.13V17.87l3.4-1.46V47.59Z"/></svg>