<svg id="Layer_1" data-name="Layer 1" xmlns="http://www.w3.org/2000/svg" viewBox="0 0 64 64"><path d="M63.28,12.59c-1.34-4.41-4.47-7.7-9.31-9.8C43.59-1.7,35.18,6.24,32,9.93,28.82,6.24,20.41-1.7,10,2.79c-4.84,2.1-8,5.39-9.31,9.8-2,6.5.17,15.1,6,24.21A101.91,101.91,0,0,0,31.62,62.43l.39.28.38-.28c16.44-12,24.78-25.49,24.85-25.62C63.11,27.69,65.26,19.09,63.28,12.59ZM62,13c.1.32.18.65.25,1L56.18,16.8,57.83,6.63A13.15,13.15,0,0,1,62,13Zm-32-.94-10.3,2.5,3.3-4.19Zm10.84-1.69,3.3,4.19L33.92,12ZM32,12.9l13.16,3.2v11L45,27.3l0,.08-6.48,9.69L32,43.19l-6.56-6.12L19,27.38,19,27.3l-.17-.17v-11ZM17.54,25.83l-7.6-7.57,7.6-1.84Zm.66,2.76,5.09,7.61-8-2.93ZM31,44.08v.57l-2.93,2-1.82-7ZM28.47,48,32,45.57,35.54,48,32,60.72ZM33,44.65v-.57l4.74-4.43-1.81,7ZM45.79,28.59l2.94,4.68-8,2.94Zm.67-12.17,7.6,1.84-7.6,7.57ZM46.26,15l-3.95-5L56.52,6.55l-1.7,10.56ZM17.74,15,9.18,17.11,7.48,6.55,21.69,10ZM8.81,19l8.55,8.52-3.29,5.25-9.9-5.42ZM12,33.09l-5.76.36a47.33,47.33,0,0,1-2.42-4.83Zm2.88,1.42L24.54,38l2.28,8.81-12.6-2.6ZM30.46,59.94c-2.77-2.13-5.29-4.28-7.56-6.38L27.39,49Zm6.15-11,4.49,4.61c-2.24,2.08-4.74,4.22-7.5,6.33ZM39.46,38l9.65-3.53.67,9.74-12.6,2.6Zm10.47-5.3-3.29-5.25L55.19,19l4.64,8.35Zm10.23-4.12a45.23,45.23,0,0,1-2.41,4.83L52,33.09ZM53.45,4A19.29,19.29,0,0,1,56,5.34L42.49,8.62,45.09,3A14,14,0,0,1,53.45,4Zm-10-.58L40.87,9l-8,2h0C34.63,8.82,38.45,5,43.47,3.41ZM31.16,11h0l-8-2L20.54,3.43C25.55,5,29.37,8.83,31.16,11ZM10.55,4a14,14,0,0,1,8.36-1l2.6,5.61L8,5.34A19.29,19.29,0,0,1,10.55,4ZM6.17,6.63,7.82,16.8,1.71,14c.07-.33.15-.66.25-1A13.08,13.08,0,0,1,6.17,6.63ZM1.46,15.27,7.75,18.2,3.06,26.66A24.06,24.06,0,0,1,1.46,15.27ZM7,34.71l6.62-.41L13,43.07a69.89,69.89,0,0,1-5.15-7C7.55,35.64,7.26,35.17,7,34.71ZM15.32,45.8l11.11,2.29L22,52.67C19.4,50.25,17.19,47.91,15.32,45.8Zm26.73,6.88-4.47-4.59L48.69,45.8C46.83,47.91,44.62,50.25,42.05,52.68Zm9-9.6-.6-8.78,6.62.41c-.28.47-.57.94-.88,1.41A70,70,0,0,1,51,43.08Zm9.94-16.42L56.25,18.2l6.29-2.93A24.06,24.06,0,0,1,60.94,26.66Z"/></svg>