<svg id="Layer_1" data-name="Layer 1" xmlns="http://www.w3.org/2000/svg" viewBox="0 0 64 64"><defs><style>.cls-1{fill:#d2ab66;}</style></defs><path class="cls-1" d="M48.56,0H15.44L6.74,8.79V55.34L15.44,64H48.56l8.7-8.79V8.66ZM53.4,9.56l-5.73-5.7.85-2.06,6.94,6.91Zm-9.59,43H20.15l-2-2V13.47l2.05-2.07H43.85l2,2V50.53Zm-.12-42.5H20.35L19.49,8H44.54Zm-24.53.5-1.83,1.84-2.06-.85,3-3.06Zm-2.32,3v36.8l-2.07.86V12.79Zm.49,38,1.78,1.77-.85,2.06-3-3Zm3,2.26H43.65L44.51,56h-25Zm24.54-.5,1.82-1.84,2.06.85-3,3.06Zm2.32-3V13.56l2.06-.86V51.21Zm-.5-38-1.78-1.77.85-2.06,3,3ZM45.08,6.73H19l-.86-2.06H45.93Zm-27.33.5L14,11.06l-2.06-.85,5-5Zm-4.28,5V51.84l-2.06.85V11.41ZM14,53l3.75,3.73-.85,2.07-5-4.94Zm5,4.23H45.05l.86,2.06H18.07Zm27.33-.5L50,52.94l2.06.85-5,5Zm4.28-5V12.16l2.06-.86V52.59ZM50,11,46.28,7.23l.85-2.07,5,4.94ZM46.47,3.37H17.55L16.69,1.3H47.32Zm-30.12.5L10.6,9.67,8.53,8.82l7-7Zm-6.25,7V53.24L8,54.09V10Zm.5,43.57,5.73,5.7-.85,2.06L8.54,55.29Zm6.93,6.19H46.45l.86,2.07H16.68Zm30.12-.5,5.75-5.8,2.07.85-7,7Zm6.25-7V10.76L56,9.91V54Z"/></svg>